<svg xmlns="http://www.w3.org/2000/svg" fill="none" viewBox="0 0 24 25" class="injected-svg" data-src="https://static.elfsight.com/icons/app-all-in-one-reviews-icons-apple-app-store-multicolor.svg" xmlns:xlink="http://www.w3.org/1999/xlink"><circle cx="12" cy="12.5" r="10" fill="url(#a-2)"></circle><path fill="#fff" fill-rule="evenodd" d="m13.258 9.556.691 1.149c.523.87 1.048 1.737 1.568 2.608.035.06.078.118.123.174.688-.01 1.378-.008 2.067-.001.408.004.78.336.792.73.025.396-.322.763-.733.788-.406.03-.816.02-1.222.006.237.408.487.81.729 1.217.147.228.236.518.124.779-.14.377-.626.6-1.017.443-.274-.093-.434-.34-.568-.572-.167-.277-.333-.556-.503-.832-.148-.25-.297-.498-.446-.746l-.898-1.489c-.247-.416-.5-.83-.75-1.246-.161-.278-.351-.544-.45-.85a2.098 2.098 0 0 1 .257-1.883c.075-.095.156-.185.236-.275Zm-5.67 5.572c.64-.181 1.398-.024 1.812.492-.078.123-.154.246-.23.37-.227.36-.436.73-.674 1.082-.212.325-.66.515-1.053.388-.429-.118-.712-.555-.629-.968.175-.491.513-.912.774-1.364Zm5.22-8.553c.35-.173.793-.031 1.013.267a.801.801 0 0 1 0 .871c-.434.74-.888 1.47-1.326 2.207-.723 1.188-1.433 2.383-2.16 3.569.814-.003 1.628-.002 2.442 0 .433-.004.833.26 1.03.62.133.291.182.676-.014.943-2.397.007-4.796 0-7.194.004-.243-.005-.505-.004-.716-.137a.789.789 0 0 1-.37-.825c.114-.376.503-.636.912-.606.675-.003 1.352.003 2.028-.003.622-1.037 1.25-2.072 1.875-3.11.268-.439.53-.882.8-1.322-.278-.447-.55-.897-.816-1.35a.79.79 0 0 1 0-.85c.212-.305.66-.451 1.012-.28.388.17.524.592.741.911.232-.31.355-.737.743-.91Z" clip-rule="evenodd"></path><defs><linearGradient id="a-2" x1="12" x2="12" y1="22.5" y2="2.5" gradientUnits="userSpaceOnUse"><stop stop-color="#1C71ED"></stop><stop offset="1" stop-color="#48CEFD"></stop></linearGradient></defs></svg>