<svg width="82" height="82" viewBox="0 0 82 82" fill="none" xmlns="http://www.w3.org/2000/svg">
<g filter="url(#filter0_b_83_221)">
<circle cx="41" cy="41" r="41" fill="url(#paint0_linear_83_221)" fill-opacity="0.2"/>
</g>
<path fill-rule="evenodd" clip-rule="evenodd" d="M26.9211 30.8569C25.25 33.157 25.25 36.438 25.25 43C25.25 49.562 25.25 52.843 26.9211 55.1431C27.4608 55.8859 28.1141 56.5392 28.8569 57.0789C31.157 58.75 34.438 58.75 41 58.75C47.562 58.75 50.843 58.75 53.1431 57.0789C53.8859 56.5392 54.5392 55.8859 55.0789 55.1431C56.75 52.843 56.75 49.562 56.75 43C56.75 36.438 56.75 33.157 55.0789 30.8569C54.5392 30.1141 53.8859 29.4608 53.1431 28.9211C50.843 27.25 47.562 27.25 41 27.25C34.438 27.25 31.157 27.25 28.8569 28.9211C28.1141 29.4608 27.4608 30.1141 26.9211 30.8569ZM44.43 34.0725C44.925 33.5755 45.5296 33.1053 46.3345 32.9771C46.4997 32.9507 46.6664 32.9375 46.8335 32.9375C47.0006 32.9375 47.1673 32.9507 47.3324 32.9771C48.1373 33.1053 48.7419 33.5755 49.237 34.0725C49.7142 34.5516 50.2408 35.2158 50.8514 35.986L52.5286 38.1012C52.979 38.6692 52.8836 39.4948 52.3156 39.9451C51.7476 40.3955 50.9221 40.3001 50.4717 39.7321L48.8409 37.6753C48.5756 37.3408 48.3473 37.0533 48.146 36.8058V50.5833C48.146 51.3082 47.5584 51.8958 46.8335 51.8958C46.1086 51.8958 45.521 51.3082 45.521 50.5833V36.8058C45.3197 37.0533 45.0914 37.3408 44.8261 37.6753L43.1953 39.7321C42.7449 40.3001 41.9194 40.3955 41.3514 39.9451C40.7834 39.4948 40.688 38.6692 41.1384 38.1012L42.8155 35.986C43.4261 35.2158 43.9527 34.5516 44.43 34.0725ZM36.4792 35.4164C36.4792 34.6915 35.8915 34.1039 35.1667 34.1039C34.4418 34.1039 33.8542 34.6915 33.8542 35.4164L33.8542 49.194C33.6529 48.9464 33.4245 48.659 33.1593 48.3244L31.5284 46.2676C31.0781 45.6996 30.2525 45.6042 29.6846 46.0546C29.1166 46.505 29.0212 47.3305 29.4716 47.8985L31.1487 50.0137C31.7593 50.7839 32.2859 51.4482 32.7631 51.9272C33.2582 52.4242 33.8628 52.8944 34.6677 53.0227C34.8328 53.049 34.9996 53.0622 35.1667 53.0622C35.3338 53.0622 35.5005 53.049 35.6656 53.0227C36.4705 52.8944 37.0751 52.4242 37.5702 51.9272C38.0474 51.4482 38.574 50.7839 39.1846 50.0138L40.8618 47.8985C41.3121 47.3305 41.2168 46.505 40.6488 46.0546C40.0808 45.6042 39.2552 45.6996 38.8049 46.2676L37.1741 48.3244C36.9088 48.659 36.6805 48.9464 36.4792 49.194L36.4792 35.4164Z" fill="#1CB894"/>
<defs>
<filter id="filter0_b_83_221" x="-200" y="-200" width="482" height="482" filterUnits="userSpaceOnUse" color-interpolation-filters="sRGB">
<feFlood flood-opacity="0" result="BackgroundImageFix"/>
<feGaussianBlur in="BackgroundImageFix" stdDeviation="100"/>
<feComposite in2="SourceAlpha" operator="in" result="effect1_backgroundBlur_83_221"/>
<feBlend mode="normal" in="SourceGraphic" in2="effect1_backgroundBlur_83_221" result="shape"/>
</filter>
<linearGradient id="paint0_linear_83_221" x1="41" y1="0" x2="41" y2="102.91" gradientUnits="userSpaceOnUse">
<stop stop-color="#F8F8F8"/>
<stop offset="1" stop-color="#F8F8F8" stop-opacity="0.3"/>
</linearGradient>
</defs>
</svg>
