<svg xmlns="http://www.w3.org/2000/svg" viewBox="0 0 640 480" class="h-4 mr-2">
                <path fill="#de2910" d="M0 0h640v480H0z" />
                <path fill="#ffde00"
                  d="M129.9 62.4L156 139l76.9.6-62 45 23.3 76.5-63.7-43.8-63.7 43.8L90.6 185l-62-45 76.9-.6z" />
                <path fill="#ffde00"
                  d="M240.3 22l5.4 16.6h17.5l-14.2 10.3 5.5 16.6-14.2-10.3-14.2 10.3 5.5-16.6-14.2-10.3h17.5zM285.4 62.6l5.5 16.5h17.5l-14.2 10.3 5.5 16.5-14.2-10.3-14.2 10.3 5.4-16.5-14.2-10.3h17.6zM265.6 109.8l5.4 16.6h17.6l-14.2 10.2 5.4 16.6-14.2-10.3-14.2 10.3 5.5-16.6-14.2-10.2h17.5zM222.7 144.8l5.5 16.6h17.6l-14.2 10.3 5.4 16.6-14.2-10.3-14.2 10.3 5.5-16.6-14.2-10.3h17.5z" />
              </svg>