<svg width="54" height="24" viewBox="0 0 54 24" fill="none" xmlns="http://www.w3.org/2000/svg">
<path d="M16.7216 12.577C16.7109 10.627 17.593 9.15515 19.3783 8.0712C18.3794 6.64187 16.8703 5.85547 14.8778 5.70138C12.9915 5.5526 10.9299 6.80128 10.1753 6.80128C9.37832 6.80128 7.55048 5.75452 6.11583 5.75452C3.1509 5.80234 0 8.11902 0 12.8321C0 14.2242 0.255048 15.6624 0.765143 17.1467C1.44527 19.0967 3.90011 23.8789 6.46121 23.7992C7.80021 23.7673 8.74601 22.848 10.4888 22.848C12.1785 22.848 13.0553 23.7992 14.5484 23.7992C17.1307 23.762 19.3518 19.4155 20 17.4601C16.5356 15.8289 16.7216 12.678 16.7216 12.577ZM13.7141 3.85228C15.1647 2.13071 15.0319 0.563231 14.9894 0C13.7088 0.0743889 12.2264 0.871413 11.3815 1.85441C10.4516 2.90648 9.90436 4.20829 10.0213 5.67481C11.4081 5.78108 12.6727 5.06908 13.7141 3.85228Z" fill="white"/>
<path d="M29.28 7.73215V6.26015H30.704V7.73215H29.28ZM29.28 17.9001V9.26015H30.704V17.9001H29.28ZM37.8404 18.1401C36.6937 18.1401 35.7204 17.8868 34.9204 17.3801C34.1204 16.8735 33.5097 16.1695 33.0884 15.2681C32.6724 14.3668 32.4644 13.3241 32.4644 12.1401C32.4644 10.9561 32.6724 9.91348 33.0884 9.01215C33.5097 8.11081 34.1204 7.40681 34.9204 6.90015C35.7204 6.39348 36.6937 6.14015 37.8404 6.14015C38.9924 6.14015 39.9684 6.39348 40.7684 6.90015C41.5684 7.40681 42.1764 8.11081 42.5924 9.01215C43.0084 9.91348 43.2164 10.9561 43.2164 12.1401C43.2164 13.3241 43.0084 14.3668 42.5924 15.2681C42.1764 16.1695 41.5684 16.8735 40.7684 17.3801C39.9684 17.8868 38.9924 18.1401 37.8404 18.1401ZM37.8404 16.7801C38.699 16.7855 39.4137 16.5935 39.9844 16.2041C40.5604 15.8095 40.9897 15.2628 41.2724 14.5641C41.5604 13.8655 41.7044 13.0575 41.7044 12.1401C41.7044 11.2175 41.5604 10.4095 41.2724 9.71615C40.9897 9.02281 40.5604 8.48148 39.9844 8.09215C39.4137 7.70281 38.699 7.50548 37.8404 7.50015C36.9817 7.49481 36.267 7.68681 35.6964 8.07615C35.131 8.46548 34.7044 9.00948 34.4164 9.70815C34.1284 10.4068 33.9817 11.2175 33.9764 12.1401C33.971 13.0575 34.1124 13.8628 34.4004 14.5561C34.6884 15.2495 35.1177 15.7935 35.6884 16.1881C36.2644 16.5775 36.9817 16.7748 37.8404 16.7801ZM48.9111 18.1401C48.0951 18.1401 47.3591 18.0015 46.7031 17.7241C46.0525 17.4468 45.5138 17.0521 45.0871 16.5401C44.6658 16.0228 44.3911 15.4121 44.2631 14.7081L45.7351 14.4761C45.9218 15.2015 46.3085 15.7695 46.8951 16.1801C47.4871 16.5855 48.1831 16.7881 48.9831 16.7881C49.5005 16.7881 49.9671 16.7081 50.3831 16.5481C50.8045 16.3828 51.1378 16.1481 51.3831 15.8441C51.6285 15.5401 51.7511 15.1801 51.7511 14.7641C51.7511 14.5081 51.7058 14.2895 51.6151 14.1081C51.5298 13.9215 51.4098 13.7641 51.2551 13.6361C51.1058 13.5028 50.9351 13.3908 50.7431 13.3001C50.5511 13.2095 50.3511 13.1348 50.1431 13.0761L47.2071 12.2041C46.8871 12.1081 46.5778 11.9881 46.2791 11.8441C45.9805 11.6948 45.7138 11.5108 45.4791 11.2921C45.2445 11.0681 45.0578 10.8015 44.9191 10.4921C44.7805 10.1775 44.7111 9.80681 44.7111 9.38015C44.7111 8.69748 44.8871 8.11615 45.2391 7.63615C45.5965 7.15081 46.0791 6.78015 46.6871 6.52415C47.2951 6.26815 47.9805 6.14281 48.7431 6.14815C49.5165 6.15348 50.2071 6.29215 50.8151 6.56415C51.4285 6.83081 51.9351 7.21481 52.3351 7.71615C52.7405 8.21748 53.0125 8.81748 53.1511 9.51615L51.6391 9.78015C51.5591 9.31081 51.3805 8.90815 51.1031 8.57215C50.8311 8.23081 50.4898 7.96948 50.0791 7.78815C49.6685 7.60148 49.2178 7.50548 48.7271 7.50015C48.2578 7.49481 47.8338 7.56948 47.4551 7.72415C47.0765 7.87881 46.7751 8.09481 46.5511 8.37215C46.3271 8.64415 46.2151 8.95881 46.2151 9.31615C46.2151 9.66815 46.3165 9.95348 46.5191 10.1721C46.7218 10.3855 46.9698 10.5561 47.2631 10.6841C47.5618 10.8068 47.8525 10.9081 48.1351 10.9881L50.3271 11.6201C50.5778 11.6895 50.8658 11.7855 51.1911 11.9081C51.5218 12.0308 51.8418 12.2041 52.1511 12.4281C52.4605 12.6468 52.7165 12.9401 52.9191 13.3081C53.1218 13.6708 53.2231 14.1295 53.2231 14.6841C53.2231 15.2388 53.1111 15.7321 52.8871 16.1641C52.6685 16.5961 52.3618 16.9588 51.9671 17.2521C51.5725 17.5401 51.1138 17.7588 50.5911 17.9081C50.0685 18.0628 49.5085 18.1401 48.9111 18.1401Z" fill="white"/>
</svg>
