<svg width="96" height="22" viewBox="0 0 96 22" fill="none" xmlns="http://www.w3.org/2000/svg">
<path d="M20 1L9.2 2.6V10.6L20 10.5V1ZM8.2 11.5L0 11.4V18.2L8.1 19.3L8.2 11.5ZM0 3.8V10.6H8.1V2.7L0 3.8ZM9.1 11.5V19.4L20 21V11.6L9.1 11.5Z" fill="white"/>
<path d="M31.576 17L28.24 5.48H29.728L32.288 14.592L34.84 5.488L36.336 5.48L38.896 14.592L41.448 5.48H42.944L39.608 17H38.184L35.592 7.968L33 17H31.576ZM44.155 6.832V5.36H45.579V6.832H44.155ZM44.155 17V8.36H45.579V17H44.155ZM54.1314 17V12.672C54.1314 12.2613 54.094 11.8667 54.0194 11.488C53.95 11.1093 53.8247 10.7707 53.6434 10.472C53.4674 10.168 53.2274 9.928 52.9234 9.752C52.6247 9.576 52.246 9.488 51.7874 9.488C51.43 9.488 51.1047 9.54933 50.8114 9.672C50.5234 9.78933 50.2754 9.97067 50.0674 10.216C49.8594 10.4613 49.6967 10.7707 49.5794 11.144C49.4674 11.512 49.4114 11.9467 49.4114 12.448L48.4754 12.16C48.4754 11.3227 48.6247 10.6053 48.9234 10.008C49.2274 9.40533 49.6514 8.944 50.1954 8.624C50.7447 8.29867 51.39 8.136 52.1314 8.136C52.6914 8.136 53.1687 8.224 53.5634 8.4C53.958 8.576 54.286 8.81067 54.5474 9.104C54.8087 9.392 55.014 9.71733 55.1634 10.08C55.3127 10.4373 55.4167 10.8027 55.4754 11.176C55.5394 11.544 55.5714 11.8933 55.5714 12.224V17H54.1314ZM47.9714 17V8.36H49.2514V10.672H49.4114V17H47.9714ZM60.9651 17.24C60.1598 17.24 59.4691 17.04 58.8931 16.64C58.3171 16.2347 57.8718 15.688 57.5571 15C57.2478 14.312 57.0931 13.536 57.0931 12.672C57.0931 11.808 57.2478 11.032 57.5571 10.344C57.8718 9.656 58.3171 9.11467 58.8931 8.72C59.4691 8.32 60.1571 8.12 60.9571 8.12C61.7731 8.12 62.4585 8.31733 63.0131 8.712C63.5678 9.10667 63.9865 9.648 64.2691 10.336C64.5571 11.024 64.7011 11.8027 64.7011 12.672C64.7011 13.5307 64.5571 14.3067 64.2691 15C63.9865 15.688 63.5678 16.2347 63.0131 16.64C62.4585 17.04 61.7758 17.24 60.9651 17.24ZM61.1411 15.936C61.7225 15.936 62.1998 15.7973 62.5731 15.52C62.9465 15.2373 63.2211 14.8507 63.3971 14.36C63.5785 13.864 63.6691 13.3013 63.6691 12.672C63.6691 12.032 63.5785 11.4693 63.3971 10.984C63.2211 10.4933 62.9491 10.112 62.5811 9.84C62.2131 9.56267 61.7465 9.424 61.1811 9.424C60.5945 9.424 60.1091 9.568 59.7251 9.856C59.3465 10.144 59.0638 10.5333 58.8771 11.024C58.6958 11.5147 58.6051 12.064 58.6051 12.672C58.6051 13.2853 58.6985 13.84 58.8851 14.336C59.0718 14.8267 59.3518 15.216 59.7251 15.504C60.1038 15.792 60.5758 15.936 61.1411 15.936ZM63.6691 17V10.64H63.5091V5.48H64.9411V17H63.6691ZM70.8625 17.24C70.0038 17.24 69.2625 17.0453 68.6385 16.656C68.0198 16.2667 67.5425 15.728 67.2065 15.04C66.8705 14.352 66.7025 13.5627 66.7025 12.672C66.7025 11.7653 66.8732 10.9707 67.2145 10.288C67.5558 9.60533 68.0385 9.07467 68.6625 8.696C69.2865 8.312 70.0198 8.12 70.8625 8.12C71.7265 8.12 72.4705 8.31467 73.0945 8.704C73.7185 9.088 74.1958 9.624 74.5265 10.312C74.8625 10.9947 75.0305 11.7813 75.0305 12.672C75.0305 13.5733 74.8625 14.368 74.5265 15.056C74.1905 15.7387 73.7105 16.2747 73.0865 16.664C72.4625 17.048 71.7212 17.24 70.8625 17.24ZM70.8625 15.888C71.7585 15.888 72.4252 15.5893 72.8625 14.992C73.2998 14.3947 73.5185 13.6213 73.5185 12.672C73.5185 11.696 73.2972 10.92 72.8545 10.344C72.4118 9.76267 71.7478 9.472 70.8625 9.472C70.2598 9.472 69.7638 9.608 69.3745 9.88C68.9852 10.152 68.6945 10.528 68.5025 11.008C68.3105 11.488 68.2145 12.0427 68.2145 12.672C68.2145 13.6427 68.4385 14.4213 68.8865 15.008C69.3345 15.5947 69.9932 15.888 70.8625 15.888ZM78.3194 17L75.6794 8.352L77.0954 8.36L79.0234 14.68L80.9674 8.36H82.2234L84.1594 14.68L86.0954 8.36H87.5034L84.8634 17H83.6794L81.5914 10.432L79.5034 17H78.3194ZM91.8996 17.232C90.8703 17.232 90.025 17.008 89.3636 16.56C88.7076 16.1067 88.305 15.4747 88.1556 14.664L89.6116 14.432C89.729 14.9013 89.9983 15.2747 90.4196 15.552C90.841 15.824 91.3636 15.96 91.9876 15.96C92.5796 15.96 93.0436 15.8373 93.3796 15.592C93.7156 15.3467 93.8836 15.0133 93.8836 14.592C93.8836 14.3467 93.8276 14.1493 93.7156 14C93.6036 13.8453 93.3716 13.7013 93.0196 13.568C92.673 13.4347 92.1476 13.2747 91.4436 13.088C90.681 12.8853 90.081 12.6747 89.6436 12.456C89.2063 12.2373 88.8943 11.984 88.7076 11.696C88.521 11.408 88.4276 11.0587 88.4276 10.648C88.4276 10.1413 88.5663 9.69867 88.8436 9.32C89.121 8.936 89.5076 8.64 90.0036 8.432C90.505 8.224 91.0863 8.12 91.7476 8.12C92.4036 8.12 92.9903 8.224 93.5076 8.432C94.025 8.64 94.441 8.936 94.7556 9.32C95.0756 9.69867 95.265 10.1413 95.3236 10.648L93.8676 10.912C93.7983 10.448 93.5743 10.0827 93.1956 9.816C92.8223 9.54933 92.3396 9.408 91.7476 9.392C91.1876 9.37067 90.7316 9.46933 90.3796 9.688C90.033 9.90667 89.8596 10.2027 89.8596 10.576C89.8596 10.784 89.9236 10.9627 90.0516 11.112C90.185 11.2613 90.4276 11.4027 90.7796 11.536C91.137 11.6693 91.6543 11.8213 92.3316 11.992C93.0943 12.184 93.6943 12.3947 94.1316 12.624C94.5743 12.848 94.889 13.1147 95.0756 13.424C95.2623 13.728 95.3556 14.104 95.3556 14.552C95.3556 15.384 95.049 16.04 94.4356 16.52C93.8223 16.9947 92.977 17.232 91.8996 17.232Z" fill="white"/>
</svg>
