<svg width="82" height="24" viewBox="0 0 82 24" fill="none" xmlns="http://www.w3.org/2000/svg">
<path d="M16.7216 12.577C16.7109 10.627 17.593 9.15515 19.3783 8.0712C18.3794 6.64187 16.8703 5.85547 14.8778 5.70138C12.9915 5.5526 10.9299 6.80128 10.1753 6.80128C9.37832 6.80128 7.55048 5.75452 6.11583 5.75452C3.1509 5.80234 0 8.11902 0 12.8321C0 14.2242 0.255048 15.6624 0.765143 17.1467C1.44527 19.0967 3.90011 23.8789 6.46121 23.7992C7.80021 23.7673 8.74601 22.848 10.4888 22.848C12.1785 22.848 13.0553 23.7992 14.5484 23.7992C17.1307 23.762 19.3518 19.4155 20 17.4601C16.5356 15.8289 16.7216 12.678 16.7216 12.577ZM13.7141 3.85228C15.1647 2.13071 15.0319 0.563231 14.9894 0C13.7088 0.0743889 12.2264 0.871413 11.3815 1.85441C10.4516 2.90648 9.90436 4.20829 10.0213 5.67481C11.4081 5.78108 12.6727 5.06908 13.7141 3.85228Z" fill="white"/>
<path d="M29.12 17.9004V6.38039H30.416L34.768 15.5564L39.096 6.38039H40.408V17.8924H39.056V9.50839L35.144 17.9004H34.384L30.472 9.50839V17.9004H29.12ZM45.1073 18.1404C44.4619 18.1404 43.9206 18.0231 43.4833 17.7884C43.0513 17.5484 42.7233 17.2337 42.4993 16.8444C42.2806 16.4551 42.1713 16.0284 42.1713 15.5644C42.1713 15.1111 42.2566 14.7191 42.4273 14.3884C42.6033 14.0524 42.8486 13.7751 43.1633 13.5564C43.4779 13.3324 43.8539 13.1564 44.2913 13.0284C44.7019 12.9164 45.1606 12.8204 45.6673 12.7404C46.1793 12.6551 46.6966 12.5777 47.2193 12.5084C47.7419 12.4391 48.2299 12.3724 48.6833 12.3084L48.1713 12.6044C48.1873 11.8364 48.0326 11.2684 47.7073 10.9004C47.3873 10.5324 46.8326 10.3484 46.0433 10.3484C45.5206 10.3484 45.0619 10.4684 44.6673 10.7084C44.2779 10.9431 44.0033 11.3271 43.8433 11.8604L42.4913 11.4524C42.6993 10.6951 43.1019 10.1004 43.6993 9.66839C44.2966 9.23639 45.0833 9.02039 46.0593 9.02039C46.8433 9.02039 47.5153 9.16172 48.0753 9.44439C48.6406 9.72172 49.0459 10.1431 49.2913 10.7084C49.4139 10.9751 49.4913 11.2657 49.5233 11.5804C49.5553 11.8897 49.5712 12.2151 49.5712 12.5564V17.9004H48.3073V15.8284L48.6033 16.0204C48.2779 16.7191 47.8219 17.2471 47.2353 17.6044C46.6539 17.9617 45.9446 18.1404 45.1073 18.1404ZM45.3233 16.9484C45.8353 16.9484 46.2779 16.8577 46.6513 16.6764C47.0299 16.4897 47.3339 16.2471 47.5633 15.9484C47.7926 15.6444 47.9419 15.3137 48.0113 14.9564C48.0913 14.6897 48.1339 14.3937 48.1393 14.0684C48.1499 13.7377 48.1553 13.4844 48.1553 13.3084L48.6513 13.5244C48.1873 13.5884 47.7313 13.6497 47.2833 13.7084C46.8353 13.7671 46.4113 13.8311 46.0113 13.9004C45.6113 13.9644 45.2513 14.0417 44.9313 14.1324C44.6966 14.2071 44.4753 14.3031 44.2673 14.4204C44.0646 14.5377 43.8993 14.6897 43.7713 14.8764C43.6486 15.0577 43.5872 15.2844 43.5872 15.5564C43.5872 15.7911 43.6459 16.0151 43.7633 16.2284C43.8859 16.4417 44.0726 16.6151 44.3233 16.7484C44.5793 16.8817 44.9126 16.9484 45.3233 16.9484ZM55.2913 18.1404C54.4166 18.1404 53.6726 17.9457 53.0593 17.5564C52.4513 17.1617 51.9873 16.6204 51.6673 15.9324C51.3473 15.2444 51.1819 14.4604 51.1713 13.5804C51.1819 12.6791 51.3499 11.8871 51.6753 11.2044C52.0059 10.5164 52.4779 9.98039 53.0913 9.59639C53.7046 9.21239 54.4433 9.02039 55.3073 9.02039C56.2193 9.02039 57.0033 9.24439 57.6593 9.69239C58.3206 10.1404 58.7633 10.7537 58.9873 11.5324L57.5793 11.9564C57.3979 11.4551 57.1019 11.0657 56.6913 10.7884C56.2859 10.5111 55.8193 10.3724 55.2913 10.3724C54.6993 10.3724 54.2113 10.5111 53.8273 10.7884C53.4433 11.0604 53.1579 11.4391 52.9713 11.9244C52.7846 12.4044 52.6886 12.9564 52.6833 13.5804C52.6939 14.5404 52.9153 15.3164 53.3473 15.9084C53.7846 16.4951 54.4326 16.7884 55.2913 16.7884C55.8566 16.7884 56.3259 16.6604 56.6993 16.4044C57.0726 16.1431 57.3553 15.7671 57.5473 15.2764L58.9873 15.6524C58.6886 16.4577 58.2219 17.0737 57.5873 17.5004C56.9526 17.9271 56.1873 18.1404 55.2913 18.1404ZM65.356 18.1404C64.2093 18.1404 63.236 17.8871 62.436 17.3804C61.636 16.8737 61.0253 16.1697 60.604 15.2684C60.188 14.3671 59.98 13.3244 59.98 12.1404C59.98 10.9564 60.188 9.91372 60.604 9.01239C61.0253 8.11106 61.636 7.40706 62.436 6.90039C63.236 6.39372 64.2093 6.14039 65.356 6.14039C66.508 6.14039 67.484 6.39372 68.284 6.90039C69.084 7.40706 69.692 8.11106 70.108 9.01239C70.524 9.91372 70.732 10.9564 70.732 12.1404C70.732 13.3244 70.524 14.3671 70.108 15.2684C69.692 16.1697 69.084 16.8737 68.284 17.3804C67.484 17.8871 66.508 18.1404 65.356 18.1404ZM65.356 16.7804C66.2147 16.7857 66.9293 16.5937 67.5 16.2044C68.076 15.8097 68.5053 15.2631 68.788 14.5644C69.076 13.8657 69.22 13.0577 69.22 12.1404C69.22 11.2177 69.076 10.4097 68.788 9.71639C68.5053 9.02306 68.076 8.48172 67.5 8.09239C66.9293 7.70306 66.2147 7.50572 65.356 7.50039C64.4973 7.49506 63.7827 7.68706 63.212 8.07639C62.6467 8.46572 62.22 9.00972 61.932 9.70839C61.644 10.4071 61.4973 11.2177 61.492 12.1404C61.4867 13.0577 61.628 13.8631 61.916 14.5564C62.204 15.2497 62.6333 15.7937 63.204 16.1884C63.78 16.5777 64.4973 16.7751 65.356 16.7804ZM76.4268 18.1404C75.6108 18.1404 74.8748 18.0017 74.2188 17.7244C73.5681 17.4471 73.0294 17.0524 72.6028 16.5404C72.1814 16.0231 71.9068 15.4124 71.7788 14.7084L73.2508 14.4764C73.4374 15.2017 73.8241 15.7697 74.4108 16.1804C75.0028 16.5857 75.6988 16.7884 76.4988 16.7884C77.0161 16.7884 77.4828 16.7084 77.8988 16.5484C78.3201 16.3831 78.6534 16.1484 78.8988 15.8444C79.1441 15.5404 79.2668 15.1804 79.2668 14.7644C79.2668 14.5084 79.2214 14.2897 79.1308 14.1084C79.0454 13.9217 78.9254 13.7644 78.7708 13.6364C78.6214 13.5031 78.4508 13.3911 78.2588 13.3004C78.0668 13.2097 77.8668 13.1351 77.6588 13.0764L74.7228 12.2044C74.4028 12.1084 74.0934 11.9884 73.7948 11.8444C73.4961 11.6951 73.2294 11.5111 72.9948 11.2924C72.7601 11.0684 72.5734 10.8017 72.4348 10.4924C72.2961 10.1777 72.2268 9.80706 72.2268 9.38039C72.2268 8.69772 72.4028 8.11639 72.7548 7.63639C73.1121 7.15106 73.5948 6.78039 74.2028 6.52439C74.8108 6.26839 75.4961 6.14306 76.2588 6.14839C77.0321 6.15372 77.7228 6.29239 78.3308 6.56439C78.9441 6.83106 79.4508 7.21506 79.8507 7.71639C80.2561 8.21772 80.5281 8.81772 80.6668 9.51639L79.1548 9.78039C79.0748 9.31106 78.8961 8.90839 78.6188 8.57239C78.3468 8.23106 78.0054 7.96972 77.5948 7.78839C77.1841 7.60172 76.7334 7.50572 76.2428 7.50039C75.7734 7.49506 75.3494 7.56972 74.9708 7.72439C74.5921 7.87906 74.2908 8.09506 74.0668 8.37239C73.8428 8.64439 73.7308 8.95906 73.7308 9.31639C73.7308 9.66839 73.8321 9.95372 74.0348 10.1724C74.2374 10.3857 74.4854 10.5564 74.7788 10.6844C75.0774 10.8071 75.3681 10.9084 75.6508 10.9884L77.8428 11.6204C78.0934 11.6897 78.3814 11.7857 78.7068 11.9084C79.0374 12.0311 79.3574 12.2044 79.6667 12.4284C79.9761 12.6471 80.2321 12.9404 80.4348 13.3084C80.6374 13.6711 80.7388 14.1297 80.7388 14.6844C80.7388 15.2391 80.6268 15.7324 80.4028 16.1644C80.1841 16.5964 79.8774 16.9591 79.4827 17.2524C79.0881 17.5404 78.6294 17.7591 78.1068 17.9084C77.5841 18.0631 77.0241 18.1404 76.4268 18.1404Z" fill="white"/>
</svg>
