<svg width="91" height="24" viewBox="0 0 91 24" fill="none" xmlns="http://www.w3.org/2000/svg">
<path d="M6 18C6 18.55 6.45 19 7 19H8V22.5C8 23.33 8.67 24 9.5 24C10.33 24 11 23.33 11 22.5V19H13V22.5C13 23.33 13.67 24 14.5 24C15.33 24 16 23.33 16 22.5V19H17C17.55 19 18 18.55 18 18V8H6V18ZM3.5 8C2.67 8 2 8.67 2 9.5V16.5C2 17.33 2.67 18 3.5 18C4.33 18 5 17.33 5 16.5V9.5C5 8.67 4.33 8 3.5 8ZM20.5 8C19.67 8 19 8.67 19 9.5V16.5C19 17.33 19.67 18 20.5 18C21.33 18 22 17.33 22 16.5V9.5C22 8.67 21.33 8 20.5 8ZM15.53 2.16L16.83 0.86C17.03 0.66 17.03 0.35 16.83 0.15C16.63 -0.05 16.32 -0.05 16.12 0.15L14.64 1.63C13.85 1.23 12.95 1 12 1C11.04 1 10.14 1.23 9.34 1.63L7.85 0.15C7.65 -0.05 7.34 -0.05 7.14 0.15C6.94 0.35 6.94 0.66 7.14 0.86L8.45 2.17C6.97 3.26 6 5.01 6 7H18C18 5.01 17.03 3.25 15.53 2.16ZM10 5H9V4H10V5ZM15 5H14V4H15V5Z" fill="white"/>
<path d="M32.32 18L36.176 6.48H38.16L42.016 18H40.536L36.928 7.312H37.376L33.8 18H32.32ZM34.176 15.304V13.968H40.16V15.304H34.176ZM49.6001 18V13.672C49.6001 13.2613 49.5628 12.8667 49.4881 12.488C49.4188 12.1093 49.2935 11.7707 49.1121 11.472C48.9361 11.168 48.6961 10.928 48.3921 10.752C48.0935 10.576 47.7148 10.488 47.2561 10.488C46.8988 10.488 46.5735 10.5493 46.2801 10.672C45.9921 10.7893 45.7441 10.9707 45.5361 11.216C45.3281 11.4613 45.1655 11.7707 45.0481 12.144C44.9361 12.512 44.8801 12.9467 44.8801 13.448L43.9441 13.16C43.9441 12.3227 44.0935 11.6053 44.3921 11.008C44.6961 10.4053 45.1201 9.944 45.6641 9.624C46.2135 9.29867 46.8588 9.136 47.6001 9.136C48.1601 9.136 48.6375 9.224 49.0321 9.4C49.4268 9.576 49.7548 9.81067 50.0161 10.104C50.2775 10.392 50.4828 10.7173 50.6321 11.08C50.7815 11.4373 50.8855 11.8027 50.9441 12.176C51.0081 12.544 51.0401 12.8933 51.0401 13.224V18H49.6001ZM43.4401 18V9.36H44.7201V11.672H44.8801V18H43.4401ZM56.4339 18.24C55.6285 18.24 54.9379 18.04 54.3619 17.64C53.7859 17.2347 53.3405 16.688 53.0259 16C52.7165 15.312 52.5619 14.536 52.5619 13.672C52.5619 12.808 52.7165 12.032 53.0259 11.344C53.3405 10.656 53.7859 10.1147 54.3619 9.72C54.9379 9.32 55.6259 9.12 56.4259 9.12C57.2419 9.12 57.9272 9.31733 58.4819 9.712C59.0365 10.1067 59.4552 10.648 59.7379 11.336C60.0259 12.024 60.1699 12.8027 60.1699 13.672C60.1699 14.5307 60.0259 15.3067 59.7379 16C59.4552 16.688 59.0365 17.2347 58.4819 17.64C57.9272 18.04 57.2445 18.24 56.4339 18.24ZM56.6099 16.936C57.1912 16.936 57.6685 16.7973 58.0419 16.52C58.4152 16.2373 58.6899 15.8507 58.8659 15.36C59.0472 14.864 59.1379 14.3013 59.1379 13.672C59.1379 13.032 59.0472 12.4693 58.8659 11.984C58.6899 11.4933 58.4179 11.112 58.0499 10.84C57.6819 10.5627 57.2152 10.424 56.6499 10.424C56.0632 10.424 55.5779 10.568 55.1939 10.856C54.8152 11.144 54.5325 11.5333 54.3459 12.024C54.1645 12.5147 54.0739 13.064 54.0739 13.672C54.0739 14.2853 54.1672 14.84 54.3539 15.336C54.5405 15.8267 54.8205 16.216 55.1939 16.504C55.5725 16.792 56.0445 16.936 56.6099 16.936ZM59.1379 18V11.64H58.9779V6.48H60.4099V18H59.1379ZM62.6513 18V9.36H63.9233V11.448L63.7153 11.176C63.8166 10.9093 63.9473 10.664 64.1073 10.44C64.2726 10.216 64.4566 10.032 64.6593 9.888C64.8833 9.70667 65.1366 9.568 65.4193 9.472C65.7019 9.376 65.9899 9.32 66.2833 9.304C66.5766 9.28267 66.8513 9.30133 67.1073 9.36V10.696C66.8086 10.616 66.4806 10.5947 66.1233 10.632C65.7659 10.6693 65.4353 10.8 65.1313 11.024C64.8539 11.2213 64.6379 11.4613 64.4833 11.744C64.3339 12.0267 64.2299 12.3333 64.1713 12.664C64.1126 12.9893 64.0833 13.3227 64.0833 13.664V18H62.6513ZM72.1438 18.24C71.2851 18.24 70.5438 18.0453 69.9198 17.656C69.3011 17.2667 68.8238 16.728 68.4878 16.04C68.1518 15.352 67.9838 14.5627 67.9838 13.672C67.9838 12.7653 68.1544 11.9707 68.4958 11.288C68.8371 10.6053 69.3198 10.0747 69.9438 9.696C70.5678 9.312 71.3011 9.12 72.1438 9.12C73.0078 9.12 73.7518 9.31467 74.3758 9.704C74.9998 10.088 75.4771 10.624 75.8078 11.312C76.1438 11.9947 76.3118 12.7813 76.3118 13.672C76.3118 14.5733 76.1438 15.368 75.8078 16.056C75.4718 16.7387 74.9918 17.2747 74.3678 17.664C73.7438 18.048 73.0024 18.24 72.1438 18.24ZM72.1438 16.888C73.0398 16.888 73.7064 16.5893 74.1438 15.992C74.5811 15.3947 74.7998 14.6213 74.7998 13.672C74.7998 12.696 74.5784 11.92 74.1358 11.344C73.6931 10.7627 73.0291 10.472 72.1438 10.472C71.5411 10.472 71.0451 10.608 70.6558 10.88C70.2664 11.152 69.9758 11.528 69.7838 12.008C69.5918 12.488 69.4958 13.0427 69.4958 13.672C69.4958 14.6427 69.7198 15.4213 70.1678 16.008C70.6158 16.5947 71.2744 16.888 72.1438 16.888ZM78.2331 7.832V6.36H79.6571V7.832H78.2331ZM78.2331 18V9.36H79.6571V18H78.2331ZM85.4495 18.24C84.6442 18.24 83.9535 18.04 83.3775 17.64C82.8015 17.2347 82.3562 16.688 82.0415 16C81.7322 15.312 81.5775 14.536 81.5775 13.672C81.5775 12.808 81.7322 12.032 82.0415 11.344C82.3562 10.656 82.8015 10.1147 83.3775 9.72C83.9535 9.32 84.6415 9.12 85.4415 9.12C86.2575 9.12 86.9428 9.31733 87.4975 9.712C88.0522 10.1067 88.4708 10.648 88.7535 11.336C89.0415 12.024 89.1855 12.8027 89.1855 13.672C89.1855 14.5307 89.0415 15.3067 88.7535 16C88.4708 16.688 88.0522 17.2347 87.4975 17.64C86.9428 18.04 86.2602 18.24 85.4495 18.24ZM85.6255 16.936C86.2068 16.936 86.6842 16.7973 87.0575 16.52C87.4308 16.2373 87.7055 15.8507 87.8815 15.36C88.0628 14.864 88.1535 14.3013 88.1535 13.672C88.1535 13.032 88.0628 12.4693 87.8815 11.984C87.7055 11.4933 87.4335 11.112 87.0655 10.84C86.6975 10.5627 86.2308 10.424 85.6655 10.424C85.0788 10.424 84.5935 10.568 84.2095 10.856C83.8308 11.144 83.5482 11.5333 83.3615 12.024C83.1802 12.5147 83.0895 13.064 83.0895 13.672C83.0895 14.2853 83.1828 14.84 83.3695 15.336C83.5562 15.8267 83.8362 16.216 84.2095 16.504C84.5882 16.792 85.0602 16.936 85.6255 16.936ZM88.1535 18V11.64H87.9935V6.48H89.4255V18H88.1535Z" fill="white"/>
</svg>
