<svg width="129" height="22" viewBox="0 0 129 22" fill="none" xmlns="http://www.w3.org/2000/svg">
<path fill-rule="evenodd" clip-rule="evenodd" d="M20.25 3.5H3.75C3.55109 3.5 3.36032 3.57902 3.21967 3.71967C3.07902 3.86032 3 4.05109 3 4.25V15.5H21V4.25C21 4.05109 20.921 3.86032 20.7803 3.71967C20.6397 3.57902 20.4489 3.5 20.25 3.5ZM3.75 2C3.15326 2 2.58097 2.23705 2.15901 2.65901C1.73705 3.08097 1.5 3.65326 1.5 4.25V17H22.5V4.25C22.5 3.65326 22.2629 3.08097 21.841 2.65901C21.419 2.23705 20.8467 2 20.25 2H3.75Z" fill="white"/>
<path d="M0 17H24V17.75C24 18.3467 23.7629 18.919 23.341 19.341C22.919 19.7629 22.3467 20 21.75 20H2.25C1.65326 20 1.08097 19.7629 0.65901 19.341C0.237053 18.919 0 18.3467 0 17.75L0 17Z" fill="white"/>
<path d="M35.576 17L32.24 5.48H33.728L36.288 14.592L38.84 5.488L40.336 5.48L42.896 14.592L45.448 5.48H46.944L43.608 17H42.184L39.592 7.968L37 17H35.576ZM51.0984 17.24C50.2504 17.24 49.509 17.0533 48.8744 16.68C48.245 16.3013 47.7544 15.776 47.4024 15.104C47.0504 14.4267 46.8744 13.6373 46.8744 12.736C46.8744 11.792 47.0477 10.976 47.3944 10.288C47.741 9.59467 48.2237 9.06133 48.8424 8.688C49.4664 8.30933 50.197 8.12 51.0344 8.12C51.9037 8.12 52.6424 8.32 53.2504 8.72C53.8637 9.12 54.3224 9.69067 54.6264 10.432C54.9357 11.1733 55.069 12.056 55.0264 13.08H53.5864V12.568C53.5704 11.5067 53.3544 10.7147 52.9384 10.192C52.5224 9.664 51.9037 9.4 51.0824 9.4C50.2024 9.4 49.533 9.68267 49.0744 10.248C48.6157 10.8133 48.3864 11.624 48.3864 12.68C48.3864 13.6987 48.6157 14.488 49.0744 15.048C49.533 15.608 50.1864 15.888 51.0344 15.888C51.605 15.888 52.101 15.7573 52.5224 15.496C52.9437 15.2347 53.2744 14.8587 53.5144 14.368L54.8824 14.84C54.5464 15.6027 54.0397 16.1947 53.3624 16.616C52.6904 17.032 51.9357 17.24 51.0984 17.24ZM47.9064 13.08V11.936H54.2904V13.08H47.9064ZM60.7755 17.24C59.9648 17.24 59.2822 17.04 58.7275 16.64C58.1728 16.2347 57.7515 15.688 57.4635 15C57.1808 14.3067 57.0395 13.5307 57.0395 12.672C57.0395 11.8027 57.1808 11.024 57.4635 10.336C57.7515 9.648 58.1728 9.10667 58.7275 8.712C59.2875 8.31733 59.9728 8.12 60.7835 8.12C61.5835 8.12 62.2715 8.32 62.8475 8.72C63.4288 9.11467 63.8742 9.656 64.1835 10.344C64.4928 11.032 64.6475 11.808 64.6475 12.672C64.6475 13.536 64.4928 14.312 64.1835 15C63.8742 15.688 63.4288 16.2347 62.8475 16.64C62.2715 17.04 61.5808 17.24 60.7755 17.24ZM56.7995 17V5.48H58.2315V10.64H58.0715V17H56.7995ZM60.5995 15.936C61.1702 15.936 61.6422 15.792 62.0155 15.504C62.3888 15.216 62.6688 14.8267 62.8555 14.336C63.0422 13.84 63.1355 13.2853 63.1355 12.672C63.1355 12.064 63.0422 11.5147 62.8555 11.024C62.6742 10.5333 62.3915 10.144 62.0075 9.856C61.6288 9.568 61.1462 9.424 60.5595 9.424C59.9995 9.424 59.5355 9.56267 59.1675 9.84C58.7995 10.112 58.5248 10.4933 58.3435 10.984C58.1622 11.4693 58.0715 12.032 58.0715 12.672C58.0715 13.3013 58.1595 13.864 58.3355 14.36C58.5168 14.8507 58.7942 15.2373 59.1675 15.52C59.5408 15.7973 60.0182 15.936 60.5995 15.936ZM68.4161 17V6.832H64.4881V5.48H73.7681V6.832H69.8401V17H68.4161ZM77.5046 17.24C76.6566 17.24 75.9153 17.0533 75.2806 16.68C74.6513 16.3013 74.1606 15.776 73.8086 15.104C73.4566 14.4267 73.2806 13.6373 73.2806 12.736C73.2806 11.792 73.454 10.976 73.8006 10.288C74.1473 9.59467 74.63 9.06133 75.2486 8.688C75.8726 8.30933 76.6033 8.12 77.4406 8.12C78.31 8.12 79.0486 8.32 79.6566 8.72C80.27 9.12 80.7286 9.69067 81.0326 10.432C81.342 11.1733 81.4753 12.056 81.4326 13.08H79.9926V12.568C79.9766 11.5067 79.7606 10.7147 79.3446 10.192C78.9286 9.664 78.31 9.4 77.4886 9.4C76.6086 9.4 75.9393 9.68267 75.4806 10.248C75.022 10.8133 74.7926 11.624 74.7926 12.68C74.7926 13.6987 75.022 14.488 75.4806 15.048C75.9393 15.608 76.5926 15.888 77.4406 15.888C78.0113 15.888 78.5073 15.7573 78.9286 15.496C79.35 15.2347 79.6806 14.8587 79.9206 14.368L81.2886 14.84C80.9526 15.6027 80.446 16.1947 79.7686 16.616C79.0966 17.032 78.342 17.24 77.5046 17.24ZM74.3126 13.08V11.936H80.6966V13.08H74.3126ZM83.2138 17V8.36H84.4858V10.448L84.2778 10.176C84.3791 9.90933 84.5098 9.664 84.6698 9.44C84.8351 9.216 85.0191 9.032 85.2218 8.888C85.4458 8.70667 85.6991 8.568 85.9818 8.472C86.2644 8.376 86.5524 8.32 86.8458 8.304C87.1391 8.28267 87.4138 8.30133 87.6698 8.36V9.696C87.3711 9.616 87.0431 9.59467 86.6858 9.632C86.3284 9.66933 85.9978 9.8 85.6938 10.024C85.4164 10.2213 85.2004 10.4613 85.0458 10.744C84.8964 11.0267 84.7924 11.3333 84.7338 11.664C84.6751 11.9893 84.6458 12.3227 84.6458 12.664V17H83.2138ZM99.5105 17L99.5185 11.472C99.5185 10.8267 99.3452 10.3227 98.9985 9.96C98.6572 9.592 98.2118 9.408 97.6625 9.408C97.3425 9.408 97.0385 9.48267 96.7505 9.632C96.4625 9.776 96.2278 10.0053 96.0465 10.32C95.8652 10.6293 95.7745 11.0267 95.7745 11.512L95.0225 11.208C95.0118 10.5947 95.1372 10.0587 95.3985 9.6C95.6652 9.136 96.0278 8.776 96.4865 8.52C96.9452 8.264 97.4625 8.136 98.0385 8.136C98.9398 8.136 99.6492 8.41067 100.167 8.96C100.684 9.504 100.943 10.2373 100.943 11.16L100.935 17H99.5105ZM89.1745 17V8.36H90.4465V10.672H90.6065V17H89.1745ZM94.3505 17L94.3585 11.528C94.3585 10.8667 94.1878 10.3493 93.8465 9.976C93.5052 9.59733 93.0518 9.408 92.4865 9.408C91.9265 9.408 91.4732 9.6 91.1265 9.984C90.7798 10.368 90.6065 10.8773 90.6065 11.512L89.8545 11.064C89.8545 10.504 89.9878 10.0027 90.2545 9.56C90.5212 9.11733 90.8838 8.77067 91.3425 8.52C91.8012 8.264 92.3212 8.136 92.9025 8.136C93.4838 8.136 93.9905 8.25867 94.4225 8.504C94.8545 8.74933 95.1878 9.10133 95.4225 9.56C95.6572 10.0133 95.7745 10.5547 95.7745 11.184L95.7665 17H94.3505ZM103.186 6.832V5.36H104.61V6.832H103.186ZM103.186 17V8.36H104.61V17H103.186ZM113.163 17V12.672C113.163 12.2613 113.125 11.8667 113.051 11.488C112.981 11.1093 112.856 10.7707 112.675 10.472C112.499 10.168 112.259 9.928 111.955 9.752C111.656 9.576 111.277 9.488 110.819 9.488C110.461 9.488 110.136 9.54933 109.843 9.672C109.555 9.78933 109.307 9.97067 109.099 10.216C108.891 10.4613 108.728 10.7707 108.611 11.144C108.499 11.512 108.443 11.9467 108.443 12.448L107.507 12.16C107.507 11.3227 107.656 10.6053 107.955 10.008C108.259 9.40533 108.683 8.944 109.227 8.624C109.776 8.29867 110.421 8.136 111.163 8.136C111.723 8.136 112.2 8.224 112.595 8.4C112.989 8.576 113.317 8.81067 113.579 9.104C113.84 9.392 114.045 9.71733 114.195 10.08C114.344 10.4373 114.448 10.8027 114.507 11.176C114.571 11.544 114.603 11.8933 114.603 12.224V17H113.163ZM107.003 17V8.36H108.283V10.672H108.443V17H107.003ZM119.139 17.24C118.493 17.24 117.952 17.1227 117.515 16.888C117.083 16.648 116.755 16.3333 116.531 15.944C116.312 15.5547 116.203 15.128 116.203 14.664C116.203 14.2107 116.288 13.8187 116.459 13.488C116.635 13.152 116.88 12.8747 117.195 12.656C117.509 12.432 117.885 12.256 118.323 12.128C118.733 12.016 119.192 11.92 119.699 11.84C120.211 11.7547 120.728 11.6773 121.251 11.608C121.773 11.5387 122.261 11.472 122.715 11.408L122.203 11.704C122.219 10.936 122.064 10.368 121.739 10C121.419 9.632 120.864 9.448 120.075 9.448C119.552 9.448 119.093 9.568 118.699 9.808C118.309 10.0427 118.035 10.4267 117.875 10.96L116.523 10.552C116.731 9.79467 117.133 9.2 117.731 8.768C118.328 8.336 119.115 8.12 120.091 8.12C120.875 8.12 121.547 8.26133 122.107 8.544C122.672 8.82133 123.077 9.24267 123.323 9.808C123.445 10.0747 123.523 10.3653 123.555 10.68C123.587 10.9893 123.602 11.3147 123.602 11.656V17H122.339V14.928L122.635 15.12C122.309 15.8187 121.853 16.3467 121.267 16.704C120.685 17.0613 119.976 17.24 119.139 17.24ZM119.355 16.048C119.867 16.048 120.309 15.9573 120.683 15.776C121.061 15.5893 121.365 15.3467 121.595 15.048C121.824 14.744 121.973 14.4133 122.043 14.056C122.123 13.7893 122.165 13.4933 122.171 13.168C122.181 12.8373 122.187 12.584 122.187 12.408L122.683 12.624C122.219 12.688 121.763 12.7493 121.315 12.808C120.867 12.8667 120.443 12.9307 120.043 13C119.643 13.064 119.283 13.1413 118.963 13.232C118.728 13.3067 118.507 13.4027 118.299 13.52C118.096 13.6373 117.931 13.7893 117.803 13.976C117.68 14.1573 117.618 14.384 117.618 14.656C117.618 14.8907 117.677 15.1147 117.795 15.328C117.917 15.5413 118.104 15.7147 118.355 15.848C118.611 15.9813 118.944 16.048 119.355 16.048ZM125.843 17V5.24H127.267V17H125.843Z" fill="white"/>
</svg>
