<svg width="160" height="32" viewBox="0 0 160 32" fill="none" xmlns="http://www.w3.org/2000/svg">
<g clip-path="url(#clip0_65_304)">
<path d="M63.0156 16.4556C63.0156 15.279 63.1781 14.2049 63.5063 13.2398C63.8313 12.2714 64.2844 11.4452 64.8594 10.7544C65.4344 10.0637 66.1094 9.53155 66.8844 9.15147C67.6594 8.77139 68.4937 8.58301 69.3875 8.58301C70.2062 8.58301 70.9563 8.7086 71.6406 8.95978C72.325 9.21096 72.9156 9.56791 73.4156 10.0339C73.9156 10.4999 74.3125 11.0618 74.6063 11.7195C74.9 12.3772 75.0656 13.1175 75.1063 13.9405H72.1719C72.1469 13.5075 72.0594 13.1109 71.9125 12.754C71.7656 12.397 71.5719 12.083 71.3281 11.8219C71.0844 11.5608 70.7969 11.3526 70.4656 11.2039C70.1344 11.0552 69.7625 10.9792 69.3531 10.9792C68.8406 10.9792 68.375 11.1114 67.9531 11.3758C67.5313 11.6402 67.1688 12.007 66.8688 12.4829C66.5688 12.9556 66.3344 13.5174 66.1688 14.1685C66.0031 14.8163 65.9188 15.5269 65.9188 16.3002C65.9188 17.0736 66.0031 17.7776 66.1688 18.4221C66.3344 19.0633 66.5656 19.6152 66.8594 20.0746C67.1531 20.534 67.5125 20.8942 67.9344 21.1487C68.3563 21.4065 68.8219 21.5354 69.3344 21.5354C70.2156 21.5354 70.8969 21.2545 71.3781 20.6926C71.8594 20.1308 72.1438 19.3838 72.2313 18.4518H75.2063C75.1281 19.2219 74.95 19.9424 74.6688 20.6133C74.3875 21.2842 74.0031 21.8659 73.5188 22.3584C73.0344 22.8508 72.4406 23.2375 71.7438 23.5151C71.0469 23.7927 70.2438 23.9316 69.3344 23.9316C68.425 23.9316 67.5438 23.7663 66.7625 23.4358C65.9813 23.1053 65.3156 22.6162 64.7656 21.975C64.2156 21.3338 63.7875 20.5472 63.4813 19.6218C63.175 18.6964 63.0219 17.6421 63.0219 16.4655L63.0156 16.4556Z" fill="white"/>
<path d="M76.95 23.6173V13.147H79.5031L79.4844 14.7103C79.7406 14.2244 80.0781 13.8245 80.5 13.5139C80.9219 13.2032 81.4219 13.0479 81.9969 13.0479C82.15 13.0479 82.3344 13.0545 82.5531 13.0677C82.7719 13.0809 82.95 13.1073 83.0906 13.1503V15.6258C82.95 15.5861 82.8063 15.5597 82.6594 15.5431C82.5125 15.5299 82.3625 15.5233 82.2094 15.5233C81.3281 15.5233 80.6813 15.8109 80.2719 16.3859C79.8625 16.961 79.6594 17.9029 79.6594 19.2183V23.6206H76.9531L76.95 23.6173Z" fill="white"/>
<path d="M86.6281 13.1469L87.8937 18.382C88.1125 19.2744 88.3031 20.1667 88.4687 21.0591H88.6031L89.1594 18.382L90.5594 13.1469H93.4187L90.1375 23.1313C89.8312 24.0501 89.5406 24.8136 89.2656 25.4151C88.9906 26.0166 88.6937 26.4926 88.3719 26.8462C88.0531 27.1965 87.6969 27.4411 87.3062 27.5766C86.9156 27.7121 86.4594 27.7782 85.9344 27.7782C85.6406 27.7782 85.3531 27.7716 85.0719 27.7584C84.7906 27.7452 84.5031 27.7121 84.2094 27.6559V25.3821C84.4 25.4647 84.5906 25.511 84.775 25.5242C84.9594 25.5374 85.1437 25.544 85.3219 25.544C85.5531 25.544 85.7687 25.5176 85.975 25.4614C86.1781 25.4085 86.3594 25.3061 86.5125 25.1573C86.6656 25.0086 86.7875 24.8136 86.8781 24.569C86.9687 24.3245 87.0125 24.0072 87.0125 23.6139L83.5969 13.1436H86.6281V13.1469Z" fill="white"/>
<path d="M94.8656 27.6963V13.1476H97.3781V14.5489C97.7375 14.0333 98.1843 13.6434 98.7218 13.3723C99.2593 13.1013 99.8156 12.9658 100.391 12.9658C101.003 12.9658 101.566 13.0881 102.069 13.3327C102.572 13.5773 103.009 13.9309 103.375 14.3969C103.741 14.8629 104.022 15.4314 104.219 16.1023C104.416 16.7732 104.516 17.5334 104.516 18.3861C104.516 20.1443 104.144 21.4895 103.403 22.4248C102.662 23.3568 101.656 23.8261 100.391 23.8261C99.8531 23.8261 99.3281 23.7105 98.8187 23.4824C98.3093 23.2544 97.8906 22.9007 97.5719 22.4281V27.7029H94.8656V27.6963ZM99.5468 21.6481C100.237 21.6481 100.775 21.3573 101.159 20.7756C101.544 20.1939 101.734 19.3941 101.734 18.3795C101.734 17.3648 101.547 16.6212 101.169 16.0263C100.791 15.4314 100.275 15.1339 99.625 15.1339C98.975 15.1339 98.4531 15.4115 98.0718 15.9668C97.6875 16.522 97.4968 17.3252 97.4968 18.3828C97.4968 19.371 97.675 20.1609 98.0343 20.7558C98.3937 21.3507 98.8968 21.6481 99.55 21.6481H99.5468Z" fill="white"/>
<path d="M105.422 13.1475H106.862V10.4902H109.569V13.1475H111.372V15.2594H109.569V19.9691C109.569 20.5375 109.669 20.944 109.866 21.1853C110.063 21.4299 110.356 21.5522 110.737 21.5522C110.8 21.5522 110.881 21.5489 110.978 21.5422C111.075 21.5356 111.206 21.5191 111.372 21.4927V23.6244C111.116 23.6905 110.875 23.7401 110.653 23.7665C110.428 23.793 110.169 23.8062 109.875 23.8062C109.222 23.8062 108.7 23.7103 108.312 23.522C107.925 23.3336 107.6 23.0361 107.344 22.6296C107.153 22.3321 107.025 22.0016 106.959 21.6348C106.897 21.2679 106.862 20.7358 106.862 20.0318V15.2627H105.422V13.1508V13.1475Z" fill="white"/>
<path d="M112.509 18.3821C112.509 17.5426 112.628 16.7857 112.866 16.1082C113.103 15.4307 113.438 14.8523 113.872 14.3731C114.306 13.8938 114.834 13.5204 115.456 13.256C116.078 12.9916 116.772 12.8594 117.538 12.8594C118.303 12.8594 119.003 12.9916 119.628 13.256C120.256 13.5204 120.784 13.8905 121.222 14.3731C121.656 14.8523 121.994 15.4307 122.228 16.1082C122.466 16.7857 122.584 17.5426 122.584 18.3821C122.584 19.2216 122.466 19.9619 122.228 20.646C121.991 21.3302 121.656 21.9118 121.222 22.3911C120.788 22.8703 120.256 23.2438 119.628 23.5082C119 23.7726 118.303 23.9048 117.538 23.9048C116.772 23.9048 116.075 23.7726 115.456 23.5082C114.838 23.2438 114.309 22.8736 113.872 22.3911C113.438 21.9118 113.1 21.3302 112.866 20.646C112.628 19.9619 112.509 19.2083 112.509 18.3821ZM115.331 18.3821C115.331 19.4364 115.516 20.2593 115.888 20.8476C116.259 21.4359 116.809 21.7301 117.538 21.7301C118.266 21.7301 118.819 21.4359 119.197 20.8476C119.575 20.2593 119.763 19.4364 119.763 18.3821C119.763 17.3278 119.575 16.5048 119.197 15.9165C118.819 15.3282 118.266 15.0341 117.538 15.0341C116.809 15.0341 116.259 15.3282 115.888 15.9165C115.516 16.5048 115.331 17.3278 115.331 18.3821Z" fill="white"/>
<path d="M128.656 8.88672H133.338C134.078 8.88672 134.75 8.9396 135.353 9.04867C135.956 9.15773 136.478 9.34612 136.925 9.61713C137.616 10.0369 138.131 10.5987 138.469 11.3027C138.806 12.0067 138.978 12.8263 138.978 13.7583C138.978 14.6903 138.809 15.4373 138.469 16.1115C138.131 16.789 137.634 17.3344 136.981 17.7541C136.559 18.0251 136.069 18.2135 135.513 18.3226C134.956 18.4316 134.225 18.4845 133.316 18.4845H131.513V23.6172H128.653V8.88672H128.656ZM131.516 16.0487H133.069C133.491 16.0487 133.881 16.0157 134.241 15.9463C134.6 15.8802 134.913 15.7546 135.181 15.5695C135.45 15.3877 135.663 15.1299 135.816 14.7994C135.969 14.4689 136.047 14.0459 136.047 13.5303C136.047 13.0577 135.959 12.6776 135.788 12.3934C135.616 12.1091 135.391 11.891 135.116 11.7323C134.841 11.577 134.528 11.4713 134.175 11.4184C133.822 11.3655 133.469 11.3357 133.109 11.3357H131.516V16.0454V16.0487Z" fill="white"/>
<path d="M139.847 20.7359C139.847 19.9658 140.044 19.3477 140.441 18.8883C140.838 18.4289 141.353 18.072 141.984 17.8241C142.619 17.5729 143.325 17.3945 144.103 17.2854C144.884 17.1763 145.65 17.0838 146.406 17.0012V16.4724C146.406 15.9436 146.266 15.5404 145.984 15.2561C145.703 14.9719 145.312 14.8298 144.812 14.8298C144.237 14.8298 143.8 14.9653 143.497 15.2363C143.197 15.5073 143.034 15.8775 143.006 16.3534H140.206C140.284 15.2165 140.731 14.3505 141.55 13.7556C142.369 13.1607 143.462 12.8633 144.831 12.8633C145.559 12.8633 146.191 12.9459 146.722 13.1079C147.253 13.2698 147.709 13.554 148.094 13.9606C148.284 14.1622 148.447 14.377 148.575 14.5984C148.703 14.8232 148.8 15.071 148.862 15.3487C148.925 15.6263 148.972 15.9469 148.997 16.3137C149.022 16.6806 149.034 17.1036 149.034 17.5928V20.0088C149.034 20.7392 149.053 21.4167 149.091 22.038C149.128 22.6594 149.2 23.1882 149.303 23.6211H146.866C146.828 23.3766 146.8 23.1485 146.778 22.9304C146.759 22.7156 146.744 22.504 146.731 22.3024C146.528 22.547 146.316 22.7618 146.097 22.9502C145.878 23.1386 145.644 23.2973 145.387 23.4262C145.131 23.555 144.847 23.6542 144.534 23.7203C144.222 23.7864 143.859 23.8228 143.45 23.8228C142.338 23.8228 141.456 23.565 140.813 23.0527C140.166 22.5371 139.844 21.767 139.844 20.7392L139.847 20.7359ZM144.184 21.8728C144.913 21.8728 145.466 21.6613 145.844 21.2349C146.222 20.8086 146.409 20.1211 146.409 19.1759V18.8322C145.938 18.8983 145.475 18.9611 145.028 19.0139C144.581 19.0668 144.181 19.1527 143.828 19.2684C143.475 19.3841 143.194 19.546 142.984 19.7543C142.772 19.9625 142.669 20.2665 142.669 20.6565C142.669 21.0465 142.809 21.3506 143.091 21.5588C143.372 21.767 143.738 21.8728 144.184 21.8728Z" fill="white"/>
<path d="M153.206 13.1469L154.472 18.382C154.691 19.2744 154.881 20.1667 155.047 21.0591H155.181L155.737 18.382L157.137 13.1469H159.997L156.716 23.1313C156.409 24.0501 156.119 24.8136 155.844 25.4151C155.569 26.0166 155.272 26.4926 154.95 26.8462C154.628 27.1998 154.275 27.4411 153.884 27.5766C153.494 27.7121 153.037 27.7782 152.512 27.7782C152.219 27.7782 151.931 27.7716 151.65 27.7584C151.369 27.7452 151.081 27.7121 150.787 27.6559V25.3821C150.978 25.4647 151.169 25.511 151.353 25.5242C151.537 25.5374 151.722 25.544 151.9 25.544C152.131 25.544 152.347 25.5176 152.553 25.4614C152.756 25.4085 152.937 25.3061 153.091 25.1573C153.244 25.0086 153.366 24.8136 153.456 24.569C153.547 24.3245 153.591 24.0072 153.591 23.6139L150.175 13.1436H153.206V13.1469Z" fill="white"/>
<path fill-rule="evenodd" clip-rule="evenodd" d="M1.89999 0.373047H18.5781C19.8312 0.373047 20.9844 1.10346 21.5812 2.27344L36.4312 31.3643H16.5594C15.3062 31.3643 14.1531 30.6339 13.5562 29.4639L0.231243 3.36079C-0.268757 2.3792 0.0718681 1.14973 0.993743 0.617619C1.27187 0.455673 1.58437 0.373047 1.89999 0.373047Z" fill="white" fill-opacity="0.5"/>
<path fill-rule="evenodd" clip-rule="evenodd" d="M1.89999 0.373047H18.5781C19.8312 0.373047 20.9844 1.10346 21.5812 2.27344L36.4312 31.3643H16.5594C15.3062 31.3643 14.1531 30.6339 13.5562 29.4639L0.231243 3.36079C-0.268757 2.3792 0.0718681 1.14973 0.993743 0.617619C1.27187 0.455673 1.58437 0.373047 1.89999 0.373047Z" fill="white" fill-opacity="0.5"/>
<path fill-rule="evenodd" clip-rule="evenodd" d="M51.3844 0.373047C51.7 0.373047 52.0125 0.458978 52.2906 0.617619C53.1844 1.1332 53.5312 2.30318 53.0969 3.26825L53.0531 3.35749L39.7281 29.4639C39.15 30.5975 38.05 31.318 36.8469 31.3643H36.725H17.1625H16.4406C15.8094 31.3379 15.2094 31.1296 14.6969 30.776C14.9531 30.9313 15.2437 31.0338 15.5531 31.0635C15.5875 31.0635 15.8531 31.0933 16.1469 31.0074C16.2719 30.971 16.7344 30.8553 17.2219 30.3695C17.3687 30.2241 17.5719 29.9101 17.8344 29.4309L31.7031 2.27344C32.2812 1.13981 33.3781 0.419317 34.5844 0.373047H34.7062H51.3844Z" fill="white"/>
</g>
<defs>
<clipPath id="clip0_65_304">
<rect width="160" height="30.9946" fill="white" transform="translate(0 0.373047)"/>
</clipPath>
</defs>
</svg>
