<svg width="160" height="34" viewBox="0 0 160 34" fill="none" xmlns="http://www.w3.org/2000/svg">
<g clip-path="url(#clip0_65_322)">
<path d="M30.6135 12.4613C31.1398 13.0296 31.4272 13.6366 31.4272 14.2695C31.4272 17.1626 25.4504 19.5391 17.8172 19.8007C17.3523 19.8168 16.8809 19.8265 16.403 19.8265C15.4278 19.8265 14.4721 19.791 13.5486 19.7264C13.5486 19.7264 13.5486 19.7232 13.5486 19.7199C13.5486 19.7199 13.5454 19.7199 13.5421 19.7199C13.4776 18.7965 13.442 17.8407 13.442 16.8656C13.442 16.3877 13.4517 15.9163 13.4679 15.4513C13.7326 7.8181 16.1091 1.84135 18.999 1.84135C19.6319 1.84135 20.2422 2.12872 20.8072 2.65504C19.7707 1.26337 18.5664 0.46582 17.2812 0.46582C15.9961 0.46582 14.8305 1.23753 13.8069 2.58723C11.0462 3.10709 8.40814 4.43095 6.27381 6.5685C4.01356 8.82875 2.66064 11.6476 2.21182 14.5795C2.61221 15.461 3.57443 16.2682 4.95318 16.956C4.90798 13.9466 6.03487 10.9211 8.33064 8.6221C9.39619 7.55655 10.62 6.74286 11.9277 6.18103C11.2625 7.97631 10.762 10.1106 10.4811 12.4581C10.3132 13.8594 10.2228 15.335 10.2228 16.8623C10.2228 17.7051 10.2519 18.5317 10.3035 19.3422C8.91831 19.1129 7.64288 18.8126 6.51921 18.4477C3.36778 17.4306 1.37875 15.9324 1.37875 14.263C1.37875 13.6302 1.66613 13.0199 2.19244 12.4548C0.797546 13.4946 0 14.6989 0 15.9841C0 17.3079 0.84598 18.5446 2.31514 19.6037C2.85115 22.316 4.16855 24.9024 6.26736 27.0044C8.36939 29.1032 10.9558 30.4206 13.6681 30.9566C14.7272 32.429 15.9638 33.2718 17.2877 33.2718C18.5728 33.2718 19.7772 32.4742 20.8137 31.0825C20.2454 31.6089 19.6384 31.8962 19.0055 31.8962C17.3361 31.8962 15.8379 29.9072 14.8208 26.7558C14.4559 25.6289 14.1524 24.3567 13.9264 22.9715C14.7336 23.0231 15.5634 23.0522 16.4062 23.0522C17.9303 23.0522 19.4091 22.9618 20.8105 22.7939C23.1579 22.513 25.289 22.0125 27.0875 21.3473C26.5257 22.6518 25.7152 23.8756 24.6464 24.9443C22.3507 27.2401 19.3252 28.367 16.3126 28.3218C17.0003 29.7006 17.8108 30.6628 18.6891 31.0632C21.6209 30.6111 24.443 29.2582 26.7 27.0012C28.8344 24.8669 30.1614 22.2256 30.6813 19.4681C32.031 18.4413 32.8027 17.2563 32.8027 15.9938C32.8027 14.7312 32.0052 13.5042 30.6135 12.4678V12.4613ZM8.32418 24.9476C7.27478 23.8982 6.47078 22.697 5.91217 21.4151C7.31676 21.9188 8.92154 22.3225 10.6652 22.6034C10.6652 22.6034 10.6652 22.6034 10.6652 22.6066C10.6652 22.6066 10.6652 22.6066 10.6684 22.6066C10.9493 24.3502 11.3529 25.955 11.8566 27.3596C10.5747 26.801 9.37359 25.997 8.32418 24.9476Z" fill="white"/>
<path d="M16.587 5.25152C19.506 5.27735 22.4185 6.40102 24.6432 8.62576C26.8679 10.8537 27.9948 13.7662 28.0174 16.6819C29.3962 15.9813 30.339 15.1547 30.7071 14.257C30.2099 11.4414 28.8763 8.742 26.7 6.5657C24.5237 4.3894 21.8244 3.05585 19.0087 2.55859C18.1143 2.92346 17.2877 3.86954 16.5838 5.24829L16.587 5.25152Z" fill="white"/>
<path d="M41.0675 21.7446C40.8931 21.5767 40.8027 21.3475 40.8027 21.0601V9.14211C40.8027 8.84182 40.8931 8.59965 41.0772 8.40915C41.258 8.22187 41.5002 8.125 41.8005 8.125C42.1008 8.125 42.3591 8.21541 42.5431 8.39946C42.7239 8.58351 42.8176 8.82891 42.8176 9.14211V20.3207H48.7588C49.0591 20.3207 49.2884 20.3917 49.453 20.537C49.6145 20.6791 49.6984 20.889 49.6984 21.1634C49.6984 21.4379 49.6177 21.6445 49.453 21.7898C49.2916 21.9319 49.0591 22.0062 48.7588 22.0062H41.7811C41.4808 22.0062 41.2451 21.9222 41.0675 21.7511V21.7446Z" fill="white"/>
<path d="M52.4038 21.5314C51.6935 21.1278 51.1478 20.5498 50.7635 19.8007C50.3793 19.0515 50.1855 18.183 50.1855 17.1917C50.1855 16.2004 50.3761 15.3124 50.7635 14.5633C51.1478 13.8142 51.6935 13.2395 52.4038 12.8326C53.1142 12.429 53.9376 12.2256 54.8772 12.2256C55.8168 12.2256 56.6402 12.429 57.3505 12.8326C58.0609 13.2362 58.6066 13.8142 58.9908 14.5633C59.3751 15.3124 59.5688 16.1875 59.5688 17.1917C59.5688 18.1959 59.3751 19.0515 58.9908 19.8007C58.6066 20.5498 58.0577 21.1278 57.3505 21.5314C56.6402 21.935 55.8168 22.1384 54.8772 22.1384C53.9376 22.1384 53.1142 21.9382 52.4038 21.5314ZM56.8791 19.7135C57.3409 19.142 57.5733 18.2992 57.5733 17.1917C57.5733 16.0842 57.3376 15.2608 56.8694 14.6796C56.4012 14.1016 55.7361 13.811 54.8772 13.811C54.0183 13.811 53.3531 14.1016 52.8849 14.6796C52.4167 15.2608 52.181 16.0971 52.181 17.1917C52.181 18.2863 52.4135 19.1387 52.8752 19.7135C53.337 20.2882 54.0054 20.5724 54.8772 20.5724C55.749 20.5724 56.4174 20.285 56.8791 19.7135Z" fill="white"/>
<path d="M62.9173 21.5314C62.2199 21.1278 61.6807 20.553 61.2964 19.8103C60.9122 19.0677 60.7217 18.2088 60.7217 17.2304C60.7217 16.2521 60.9186 15.3673 61.319 14.6118C61.7162 13.8562 62.2748 13.2685 62.9884 12.852C63.7052 12.4355 64.5254 12.2256 65.4521 12.2256C65.9461 12.2256 66.4466 12.2966 66.9471 12.4419C67.4475 12.584 67.8931 12.781 68.2838 13.0296C68.7004 13.317 68.9102 13.6495 68.9102 14.0273C68.9102 14.2501 68.8521 14.4342 68.7359 14.5827C68.6196 14.7312 68.4679 14.8087 68.2871 14.8087C68.1708 14.8087 68.0514 14.7797 67.9351 14.7215C67.8189 14.6634 67.6671 14.5762 67.4863 14.4568C67.1602 14.2469 66.8566 14.0887 66.579 13.9789C66.298 13.8691 65.9622 13.8142 65.5715 13.8142C64.6836 13.8142 63.999 14.1145 63.5082 14.7119C63.0207 15.3124 62.7753 16.1455 62.7753 17.2143C62.7753 18.2831 63.0174 19.1064 63.4986 19.6876C63.9797 20.2689 64.6642 20.5562 65.5489 20.5562C65.9396 20.5562 66.2851 20.4981 66.5854 20.3819C66.8857 20.2656 67.1925 20.1074 67.5024 19.9137C67.6477 19.8233 67.7898 19.7458 67.9319 19.678C68.074 19.6134 68.2063 19.5811 68.3226 19.5811C68.5034 19.5811 68.6552 19.6554 68.7714 19.8071C68.8876 19.9556 68.949 20.1429 68.949 20.3625C68.949 20.5465 68.9006 20.7112 68.8037 20.8597C68.7068 21.0083 68.5389 21.1633 68.3064 21.3183C67.9157 21.5798 67.4605 21.78 66.9374 21.9253C66.4143 22.0706 65.888 22.1416 65.3552 22.1416C64.4285 22.1416 63.618 21.9414 62.9206 21.5346L62.9173 21.5314Z" fill="white"/>
<path d="M77.0443 13.1875C77.6642 13.8268 77.971 14.7955 77.971 16.1V21.163C77.971 21.4633 77.887 21.6925 77.7159 21.8572C77.5447 22.0186 77.3123 22.1026 77.012 22.1026C76.7117 22.1026 76.4986 22.0186 76.3274 21.8475C76.1563 21.6796 76.0724 21.4503 76.0724 21.163V20.4397C75.8237 20.9854 75.4556 21.4084 74.9681 21.699C74.4805 21.9928 73.909 22.1381 73.2567 22.1381C72.6045 22.1381 72.0588 22.0122 71.5357 21.7571C71.0159 21.502 70.609 21.1468 70.3152 20.6915C70.0213 20.2363 69.876 19.7261 69.876 19.1675C69.876 18.4765 70.0536 17.934 70.412 17.5369C70.7705 17.1397 71.3613 16.8556 72.1912 16.6877C73.0178 16.5198 74.1544 16.4326 75.6009 16.4326H76.0498V15.8643C76.0498 15.1346 75.9012 14.6082 75.6009 14.2821C75.3006 13.956 74.8195 13.7945 74.1544 13.7945C73.6991 13.7945 73.2696 13.8527 72.866 13.9689C72.4624 14.0852 72.02 14.2563 71.5357 14.4759C71.1838 14.6728 70.9351 14.7697 70.7931 14.7697C70.5961 14.7697 70.4379 14.6986 70.3152 14.5533C70.1925 14.4113 70.1279 14.2272 70.1279 14.0077C70.1279 13.8107 70.1828 13.6396 70.2926 13.491C70.4024 13.3425 70.5832 13.194 70.8286 13.0519C71.2839 12.8033 71.8199 12.6063 72.4301 12.4545C73.0436 12.306 73.6345 12.2285 74.2093 12.2285C75.4718 12.2285 76.4146 12.5482 77.0346 13.1875H77.0443ZM75.3749 19.9392C75.8302 19.4516 76.0594 18.822 76.0594 18.0535V17.5466H75.7075C74.6904 17.5466 73.909 17.5918 73.3633 17.6822C72.8176 17.7726 72.4237 17.9276 72.1912 18.1407C71.9587 18.3538 71.8392 18.6638 71.8392 19.0706C71.8392 19.5388 72.0071 19.9231 72.3462 20.2233C72.6852 20.5236 73.1082 20.6722 73.6151 20.6722C74.332 20.6722 74.9164 20.4268 75.3749 19.9392Z" fill="white"/>
<path d="M80.4637 21.8641C80.2732 21.7091 80.1796 21.4734 80.1796 21.1602V9.08399C80.1796 8.77079 80.2732 8.53507 80.4637 8.3704C80.6542 8.20895 80.8899 8.125 81.1773 8.125C81.4647 8.125 81.6972 8.20572 81.8812 8.3704C82.062 8.53507 82.1557 8.77079 82.1557 9.08399V21.1602C82.1557 21.4734 82.0653 21.7059 81.8812 21.8641C81.6972 22.0191 81.4647 22.0998 81.1773 22.0998C80.8899 22.0998 80.6542 22.0223 80.4637 21.8641Z" fill="white"/>
<path d="M84.9297 21.8252C84.7457 21.6443 84.6553 21.3957 84.6553 21.0825V9.20005C84.6553 8.89976 84.7425 8.66404 84.92 8.48645C85.0976 8.30886 85.3398 8.22168 85.653 8.22168H90.364C91.8235 8.22168 92.9569 8.58009 93.7641 9.29691C94.5713 10.0137 94.9749 11.0308 94.9749 12.345C94.9749 13.6592 94.5713 14.6634 93.7641 15.3931C92.9569 16.1229 91.8235 16.4877 90.364 16.4877H86.6701V21.0793C86.6701 21.3925 86.5829 21.6411 86.4054 21.8219C86.231 22.0028 85.9791 22.0964 85.653 22.0964C85.3527 22.0964 85.1138 22.006 84.9297 21.8219V21.8252ZM90.1477 14.8668C92.0754 14.8668 93.0408 14.0273 93.0408 12.345C93.0408 10.6628 92.0754 9.8426 90.1477 9.8426H86.6701V14.8636H90.1477V14.8668Z" fill="white"/>
<path d="M103.27 13.1875C103.89 13.8268 104.196 14.7955 104.196 16.1V21.163C104.196 21.4633 104.112 21.6925 103.941 21.8572C103.77 22.0186 103.538 22.1026 103.237 22.1026C102.937 22.1026 102.724 22.0186 102.553 21.8475C102.382 21.6796 102.298 21.4503 102.298 21.163V20.4397C102.049 20.9854 101.681 21.4084 101.193 21.699C100.706 21.9928 100.134 22.1381 99.4821 22.1381C98.8299 22.1381 98.2842 22.0122 97.7611 21.7571C97.2412 21.502 96.8344 21.1468 96.5406 20.6915C96.2467 20.2363 96.1014 19.7261 96.1014 19.1675C96.1014 18.4765 96.279 17.934 96.6374 17.5369C96.9958 17.1397 97.5867 16.8556 98.4166 16.6877C99.2432 16.5198 100.38 16.4326 101.826 16.4326H102.275V15.8643C102.275 15.1346 102.127 14.6082 101.826 14.2821C101.526 13.956 101.045 13.7945 100.38 13.7945C99.9245 13.7945 99.495 13.8527 99.0914 13.9689C98.6878 14.0852 98.2454 14.2563 97.7611 14.4759C97.4092 14.6728 97.1605 14.7697 97.0185 14.7697C96.8215 14.7697 96.6633 14.6986 96.5406 14.5533C96.4179 14.4113 96.3533 14.2272 96.3533 14.0077C96.3533 13.8107 96.4082 13.6396 96.518 13.491C96.6277 13.3425 96.8086 13.194 97.054 13.0519C97.5092 12.8033 98.0452 12.6063 98.6555 12.4545C99.269 12.306 99.8599 12.2285 100.435 12.2285C101.697 12.2285 102.64 12.5482 103.26 13.1875H103.27ZM101.6 19.9392C102.056 19.4516 102.285 18.822 102.285 18.0535V17.5466H101.933C100.916 17.5466 100.134 17.5918 99.5887 17.6822C99.043 17.7726 98.6491 17.9276 98.4166 18.1407C98.1841 18.3538 98.0646 18.6638 98.0646 19.0706C98.0646 19.5388 98.2325 19.9231 98.5716 20.2233C98.9106 20.5236 99.3336 20.6722 99.8405 20.6722C100.557 20.6722 101.142 20.4268 101.6 19.9392Z" fill="white"/>
<path d="M113.528 12.426C113.676 12.3355 113.838 12.2903 114.006 12.2903C114.254 12.2903 114.471 12.3743 114.661 12.5454C114.849 12.7133 114.945 12.9168 114.945 13.1525C114.945 13.2816 114.92 13.4075 114.868 13.5238L109.434 25.0543C109.356 25.2351 109.24 25.3772 109.091 25.4741C108.943 25.5709 108.781 25.6194 108.614 25.6194C108.378 25.6194 108.168 25.5419 107.977 25.3837C107.787 25.2287 107.693 25.0317 107.693 24.796C107.693 24.6927 107.726 24.5603 107.79 24.4053L109.14 21.5315L105.368 13.5206C105.317 13.4172 105.291 13.2978 105.291 13.1686C105.291 12.92 105.394 12.7133 105.604 12.5422C105.814 12.3743 106.047 12.2871 106.308 12.2871C106.699 12.2871 106.98 12.4712 107.148 12.8328L110.176 19.5554L113.186 12.8522C113.263 12.6552 113.379 12.5131 113.528 12.4227V12.426Z" fill="white"/>
<path d="M130.228 16.0777V21.16C130.228 21.4603 130.138 21.6896 129.953 21.8543C129.769 22.0189 129.531 22.0997 129.23 22.0997C128.93 22.0997 128.71 22.0189 128.526 21.8543C128.342 21.6896 128.252 21.4603 128.252 21.16V16.0971C128.252 15.3028 128.11 14.7248 127.822 14.3664C127.535 14.008 127.086 13.8304 126.473 13.8304C125.756 13.8304 125.191 14.0758 124.774 14.5633C124.358 15.0509 124.148 15.7193 124.148 16.5653V21.1568C124.148 21.4571 124.057 21.6864 123.873 21.851C123.689 22.0157 123.45 22.0964 123.15 22.0964C122.85 22.0964 122.63 22.0157 122.446 21.851C122.262 21.6864 122.172 21.4571 122.172 21.1568V16.0938C122.172 15.2995 122.03 14.7215 121.742 14.3631C121.455 14.0047 121.006 13.8271 120.393 13.8271C119.676 13.8271 119.108 14.0725 118.681 14.5601C118.258 15.0477 118.045 15.7161 118.045 16.562V21.1536C118.045 21.4539 117.955 21.6831 117.771 21.8478C117.587 22.0092 117.354 22.0932 117.067 22.0932C116.779 22.0932 116.544 22.0125 116.353 21.8478C116.163 21.6831 116.069 21.4539 116.069 21.1536V13.2007C116.069 12.9133 116.166 12.6873 116.363 12.5162C116.56 12.3483 116.792 12.2611 117.067 12.2611C117.341 12.2611 117.564 12.3418 117.742 12.5065C117.916 12.6712 118.006 12.894 118.006 13.1813V13.9046C118.294 13.3589 118.691 12.9392 119.198 12.655C119.705 12.3677 120.293 12.2256 120.958 12.2256C121.687 12.2256 122.291 12.3741 122.766 12.6744C123.241 12.9747 123.596 13.4364 123.831 14.0628C124.119 13.5042 124.542 13.0554 125.1 12.7228C125.659 12.3903 126.298 12.2256 127.015 12.2256C129.153 12.2256 130.221 13.5075 130.221 16.0745L130.228 16.0777Z" fill="white"/>
<path d="M140.351 19.81C140.467 19.9521 140.525 20.1362 140.525 20.3557C140.525 20.7335 140.29 21.0532 139.821 21.3147C139.366 21.5763 138.866 21.7765 138.326 21.9218C137.784 22.0638 137.267 22.1381 136.773 22.1381C135.262 22.1381 134.071 21.699 133.196 20.8207C132.324 19.9424 131.885 18.738 131.885 17.214C131.885 16.2356 132.079 15.3703 132.463 14.6147C132.847 13.8591 133.386 13.2715 134.084 12.8549C134.781 12.4384 135.572 12.2285 136.457 12.2285C137.732 12.2285 138.743 12.6386 139.486 13.4587C140.228 14.2789 140.6 15.3864 140.6 16.7813C140.6 17.3012 140.364 17.5627 139.896 17.5627H133.858C133.987 19.5808 134.959 20.5914 136.77 20.5914C137.251 20.5914 137.668 20.5269 138.02 20.3945C138.372 20.2653 138.743 20.0942 139.134 19.8875C139.172 19.8617 139.279 19.8068 139.457 19.7229C139.631 19.6389 139.78 19.5969 139.896 19.5969C140.077 19.5969 140.228 19.668 140.345 19.8133L140.351 19.81ZM134.684 14.3984C134.229 14.8795 133.955 15.5575 133.864 16.4294H138.904C138.866 15.5446 138.64 14.8633 138.23 14.3887C137.82 13.914 137.242 13.6751 136.499 13.6751C135.756 13.6751 135.136 13.9172 134.681 14.3984H134.684Z" fill="white"/>
<path d="M150.844 16.0774V21.1597C150.844 21.46 150.757 21.6893 150.58 21.854C150.402 22.0186 150.16 22.0994 149.847 22.0994C149.533 22.0994 149.311 22.0154 149.133 21.8443C148.955 21.6731 148.868 21.4471 148.868 21.1597V16.1775C148.868 15.3703 148.71 14.7761 148.39 14.3984C148.071 14.0206 147.573 13.8333 146.895 13.8333C146.101 13.8333 145.462 14.0819 144.981 14.5759C144.5 15.07 144.257 15.7351 144.257 16.5682V21.1597C144.257 21.4471 144.17 21.6731 143.993 21.8443C143.815 22.0122 143.579 22.0994 143.279 22.0994C142.979 22.0994 142.74 22.0154 142.556 21.8443C142.372 21.6764 142.281 21.4471 142.281 21.1597V13.2069C142.281 12.9324 142.375 12.7096 142.565 12.532C142.756 12.3544 142.992 12.2673 143.279 12.2673C143.566 12.2673 143.792 12.3512 143.964 12.5223C144.131 12.6935 144.219 12.913 144.219 13.1875V13.9883C144.532 13.4135 144.968 12.9776 145.53 12.6773C146.088 12.377 146.721 12.2285 147.425 12.2285C149.705 12.2285 150.844 13.5104 150.844 16.0774Z" fill="white"/>
<path d="M158.339 20.8173C158.462 20.94 158.527 21.1144 158.527 21.334C158.527 21.5955 158.426 21.7925 158.223 21.9313C158.02 22.0669 157.726 22.125 157.335 22.096L156.809 22.0572C155.753 21.9797 154.965 21.6568 154.445 21.0886C153.925 20.5235 153.664 19.684 153.664 18.5764V13.9849H152.492C151.917 13.9849 151.633 13.7298 151.633 13.2229C151.633 12.9872 151.707 12.8031 151.859 12.6675C152.007 12.5319 152.22 12.4609 152.495 12.4609H153.667V10.4492C153.667 10.1489 153.754 9.91645 153.932 9.74532C154.106 9.57742 154.345 9.49023 154.645 9.49023C154.946 9.49023 155.185 9.57419 155.369 9.74532C155.55 9.91645 155.643 10.1489 155.643 10.4492V12.4609H157.577C157.852 12.4609 158.062 12.5287 158.213 12.6675C158.362 12.8031 158.439 12.9904 158.439 13.2229C158.439 13.4715 158.365 13.6588 158.213 13.7912C158.065 13.9203 157.852 13.9881 157.577 13.9881H155.643V18.7185C155.643 19.332 155.769 19.7808 156.024 20.0682C156.279 20.3556 156.667 20.517 157.187 20.5558L157.732 20.5945C158.02 20.6204 158.223 20.6946 158.349 20.8206L158.339 20.8173Z" fill="white"/>
</g>
<defs>
<clipPath id="clip0_65_322">
<rect width="160" height="32.8027" fill="white" transform="translate(0 0.46875)"/>
</clipPath>
</defs>
</svg>
