<svg width="161" height="34" viewBox="0 0 161 34" fill="none" xmlns="http://www.w3.org/2000/svg">
<path d="M151.252 8.43585C150.956 5.66955 149.406 2.80078 146.046 2.80078C146.046 2.80078 141.524 2.80078 141.165 9.28194C141.159 9.41084 141.165 9.54304 141.168 9.66863C141.181 10.0057 141.215 10.3396 141.262 10.6734C141.327 11.1361 141.427 11.5955 141.562 12.0416C141.718 12.5572 141.921 13.0596 142.187 13.5256C142.471 14.0313 142.827 14.4907 143.252 14.8707C143.731 15.3004 144.287 15.6243 144.881 15.8292C145.252 15.9581 145.64 16.0572 146.031 16.0969C146.565 16.1531 147.102 16.0771 147.621 15.9383C148.456 15.7201 149.227 15.2938 149.871 14.6956C150.14 14.4477 150.399 14.1635 150.599 13.8495C150.599 13.8495 151.018 13.1819 150.787 12.511C150.64 12.0879 150.337 11.6979 149.89 11.6583C149.374 11.6087 149.084 12.0284 148.759 12.3788C148.759 12.3788 147.965 13.4264 146.409 13.4264C145.443 13.4264 144.721 12.9505 144.252 12.1705C143.943 11.655 143.762 10.984 143.724 10.3792H149.499C149.671 10.3792 149.849 10.3792 150.021 10.3858C150.193 10.3957 150.374 10.3957 150.54 10.3462C150.749 10.2834 150.974 10.1049 151.093 9.9132C151.359 9.47694 151.306 8.93491 151.252 8.43585ZM143.759 8.09213C143.759 8.09213 144.096 5.47785 146.284 5.47785C148.471 5.47785 148.781 8.09213 148.781 8.09213H143.759Z" fill="white"/>
<path d="M151.227 5.45525C151.265 5.57423 151.309 5.69321 151.346 5.80889C151.346 5.95431 151.468 6.16583 151.518 6.30464L151.696 6.82684C151.815 7.17386 151.937 7.5242 152.059 7.87122C152.293 8.54876 152.531 9.22629 152.771 9.90712C153.04 10.6706 153.315 11.4274 153.593 12.1876C153.734 12.5743 153.874 12.961 154.018 13.3477C154.087 13.536 154.159 13.7277 154.227 13.9161C154.265 14.012 154.296 14.1045 154.334 14.2004C154.349 14.2466 154.456 14.4416 154.44 14.4846C154.231 15.0431 154.006 15.6017 153.706 16.114C153.337 16.7584 152.824 17.3203 152.281 17.7962C152.162 17.8987 151.762 18.2259 151.634 18.3118C151.356 18.4936 151.068 18.6192 150.846 18.8836C150.631 19.148 150.512 19.4752 150.512 19.8222C150.512 20.1064 150.574 20.394 150.721 20.6385C150.843 20.8402 151.006 21.0087 151.206 21.1211C151.412 21.2368 151.677 21.2004 151.893 21.1277C152.099 21.0583 152.29 20.9426 152.474 20.8203C153.281 20.2948 154.034 19.6536 154.668 18.9067C154.731 18.834 154.79 18.758 154.849 18.6787C154.918 18.5894 154.987 18.5002 155.049 18.4043C155.049 18.4043 156.068 16.9997 156.674 15.3505C157.281 13.7013 158.018 11.5596 158.018 11.5596C158.531 10.1186 159.037 8.67765 159.559 7.23996C159.746 6.72768 159.927 6.2154 160.115 5.69982C160.312 5.1578 160.506 4.5695 160.349 4.01426C160.134 3.26732 159.156 2.75174 158.584 3.39952C158.368 3.64079 158.256 3.96138 158.146 4.27205C157.649 5.67669 157.146 7.08463 156.652 8.48926C156.44 9.09408 156.227 9.6956 156.015 10.3004C155.971 10.4227 155.696 10.9449 155.743 11.0738C155.484 10.35 155.221 9.62619 154.962 8.90239C154.481 7.56386 153.999 6.22863 153.524 4.89009C153.409 4.56289 153.293 4.239 153.168 3.91511C153.059 3.63087 152.865 3.37639 152.609 3.22766C152.227 3.00622 151.712 3.10868 151.409 3.42927C151.127 3.72341 151.027 4.1729 151.052 4.59594C151.071 4.89009 151.146 5.17432 151.234 5.45855H151.227V5.45525Z" fill="white"/>
<path d="M103.615 4.28511C103.599 4.45367 103.599 4.62223 103.602 4.79078C103.606 5.27662 103.606 5.75916 103.606 6.2483V13.6582C103.606 13.9821 103.587 14.3159 103.621 14.6398C103.662 14.9868 103.774 15.3305 103.996 15.5949C104.19 15.823 104.449 15.9585 104.737 15.9816C104.777 15.9849 104.818 15.9882 104.856 15.9882C105.231 15.9882 105.556 15.7998 105.768 15.4759C105.949 15.2016 106.043 14.881 106.087 14.5505C106.131 14.2035 106.121 13.8532 106.118 13.5061V8.36021C106.118 8.00988 106.109 7.66285 106.184 7.31583C106.284 6.85643 106.481 6.39042 106.815 6.07313C107.127 5.77568 107.534 5.63357 107.949 5.61704H108.056C108.471 5.61704 108.884 5.74263 109.202 6.04008C109.477 6.29788 109.656 6.6416 109.774 7.00185C109.943 7.51082 109.943 8.06276 109.94 8.59818V14.5505C109.94 14.5505 110.049 15.9915 111.177 15.9915C112.306 15.9915 112.399 14.6662 112.399 14.6662V8.30072C112.399 8.30072 112.427 5.61704 114.518 5.61704C116.462 5.61043 116.287 8.24123 116.287 8.24123V14.696C116.287 14.696 116.446 15.9849 117.515 15.9849C118.584 15.9849 118.734 14.7191 118.734 14.7191V7.64963C118.734 7.64963 118.593 2.79785 115.081 2.79785C112.527 2.79785 111.659 4.95603 111.634 4.94942C111.627 4.94942 111.615 4.91307 111.612 4.90646L111.552 4.79078C111.521 4.73129 111.49 4.6718 111.456 4.61562C111.412 4.54291 111.365 4.46689 111.318 4.39418C111.262 4.30825 111.202 4.22562 111.143 4.1463C111.074 4.05376 110.999 3.96783 110.924 3.8819C110.84 3.78936 110.752 3.70012 110.659 3.6175C110.559 3.52826 110.456 3.44564 110.349 3.36962C110.234 3.2903 110.115 3.21428 109.99 3.14818C109.621 2.95649 109.212 2.83751 108.796 2.81438C108.69 2.80777 108.584 2.80116 108.477 2.80446C108.215 2.80446 107.959 2.86065 107.712 2.9598C107.568 3.01598 107.434 3.08869 107.302 3.17132C107.174 3.25064 107.049 3.34318 106.934 3.44233C106.796 3.55801 106.671 3.6836 106.552 3.82241C106.412 3.98105 106.284 4.14961 106.165 4.32147C106.149 4.3446 106.134 4.36774 106.118 4.39088C106.118 4.39088 105.971 2.8937 104.877 2.8937C104.437 2.8937 104.074 3.15149 103.856 3.54479C103.771 3.69021 103.702 3.85546 103.659 4.0141C103.637 4.10334 103.618 4.19257 103.609 4.28842L103.615 4.28511Z" fill="white"/>
<path d="M124.759 2.78125C121.887 2.78125 119.562 5.76238 119.562 9.43758C119.562 13.1128 121.887 16.0939 124.759 16.0939C127.631 16.0939 129.956 13.1128 129.956 9.43758C129.956 5.76238 127.631 2.78125 124.759 2.78125ZM124.759 13.3177C123.227 13.3177 121.984 11.5858 121.984 9.44749C121.984 7.30914 123.227 5.5773 124.759 5.5773C126.29 5.5773 127.534 7.30914 127.534 9.44749C127.534 11.5858 126.29 13.3177 124.759 13.3177Z" fill="white"/>
<path d="M133.24 4.41401C133.24 4.143 133.181 3.87529 133.052 3.64063C132.874 3.30022 132.537 2.91022 131.943 2.91022C131.581 2.91022 131.271 3.10852 131.068 3.41589C130.984 3.53818 130.918 3.67699 130.865 3.81911C130.79 4.03063 130.759 4.22893 130.759 4.45367V14.0911C130.759 14.3754 130.731 14.653 130.809 14.9339C130.968 15.5255 131.424 15.9948 132.024 15.9948C133.077 15.9948 133.212 14.7488 133.212 14.7488V8.73699C133.212 8.41309 133.252 8.0892 133.334 7.77853C133.552 6.94566 134.09 5.5873 135.609 5.5873C136.112 5.5873 136.596 5.75916 136.968 6.12271C137.277 6.42016 137.49 6.82007 137.634 7.22989C137.906 8.01319 137.881 8.83283 137.874 9.64917C137.874 9.89044 137.871 10.135 137.871 10.3763V13.7573C137.871 14.1705 137.812 14.5968 137.943 14.9967C138.124 15.5486 138.584 15.9981 139.159 15.9981C139.571 15.9981 139.912 15.7668 140.115 15.39C140.324 15 140.34 14.6001 140.34 14.1605C140.34 13.2583 140.337 12.3494 140.337 11.4438V8.85927C140.337 7.85124 140.234 6.86634 139.918 5.90788C139.696 5.23366 139.384 4.57926 138.937 4.03724C138.449 3.43903 137.799 3.01929 137.065 2.86726C136.834 2.81768 136.593 2.79785 136.359 2.79785C134.424 2.79785 133.437 4.18596 133.274 4.42723C133.268 4.43715 133.237 4.42723 133.237 4.41732H133.234L133.24 4.41401Z" fill="white"/>
<path d="M112.246 32.8897C112.231 32.774 112.243 32.6418 112.243 32.5261V19.7621C112.243 19.5407 112.331 19.3192 112.474 19.1606C112.624 18.9986 112.827 18.9226 113.04 18.916H113.081C113.296 18.916 113.506 18.9854 113.662 19.1474C113.843 19.3358 113.934 19.5902 113.931 19.8579V32.3278C113.931 32.5261 113.949 32.7376 113.909 32.9293C113.812 33.3392 113.487 33.6102 113.087 33.6102C112.687 33.6102 112.365 33.3458 112.262 32.9591C112.256 32.9359 112.252 32.9095 112.249 32.8864H112.246V32.8897Z" fill="white"/>
<path d="M115.934 32.8897C115.918 32.774 115.931 32.6418 115.931 32.5261V19.7621C115.931 19.5407 116.018 19.3192 116.162 19.1606C116.312 18.9986 116.515 18.9226 116.727 18.916H116.768C116.984 18.916 117.193 18.9854 117.349 19.1474C117.531 19.3358 117.621 19.5902 117.618 19.8579V32.3278C117.618 32.5261 117.637 32.7376 117.596 32.9293C117.499 33.3392 117.174 33.6102 116.774 33.6102C116.374 33.6102 116.052 33.3458 115.949 32.9591C115.943 32.9359 115.94 32.9095 115.937 32.8864H115.934V32.8897Z" fill="white"/>
<path d="M98.6868 30.4836L98.6274 30.2192C98.5868 30.0441 98.5461 29.8656 98.5086 29.6871C98.4274 29.3335 98.3524 28.9798 98.2743 28.6262C98.0993 27.8165 97.9149 26.9935 97.7368 26.1772C97.5586 25.3641 97.4024 24.5412 97.193 23.7348C97.1805 23.6852 97.1649 23.6356 97.1524 23.5893C97.093 23.3811 97.0118 23.1828 96.8555 23.0374C96.6274 22.8193 96.243 22.7895 95.9399 22.8325C95.7211 22.8655 95.4961 22.9415 95.343 23.1134C95.1836 23.2919 95.1305 23.5431 95.0774 23.781C94.593 26.0978 94.1086 28.4147 93.6211 30.7315C93.0993 28.5105 92.5743 26.2862 92.0524 24.0653C91.9461 23.6158 91.8055 23.1167 91.4211 22.9019C91.0743 22.7102 90.6024 22.8589 90.3899 23.196C90.0868 23.6753 90.2305 24.2702 90.368 24.7824C91.0743 27.4 91.7836 30.0176 92.4899 32.6352C92.5711 32.926 92.6586 33.24 92.8868 33.4251C93.0743 33.5804 93.318 33.6234 93.5524 33.6333C93.8305 33.6465 94.1368 33.6135 94.3399 33.4119C94.5211 33.2334 94.5899 32.9591 94.643 32.698L96.068 26.0747C96.0711 26.0549 96.0993 26.0582 96.1024 26.0747C96.5711 28.0181 96.9993 29.9746 97.4336 31.9246C97.493 32.1956 97.5524 32.4666 97.6118 32.741C97.6586 32.9558 97.7118 33.1805 97.8461 33.3458C98.0274 33.5672 98.3274 33.6366 98.6055 33.6432C98.8243 33.6465 99.0555 33.6201 99.243 33.4978C99.5368 33.3127 99.6774 32.9459 99.7555 32.5955C99.9805 31.571 100.274 30.5629 100.543 29.5483C100.968 27.9454 101.452 26.3589 101.846 24.7428C101.884 24.5908 101.918 24.442 101.952 24.29C101.99 24.1247 102.024 23.9529 102.037 23.781C102.049 23.5398 102.002 23.3018 101.834 23.0936C101.671 22.8953 101.427 22.7928 101.181 22.8093C100.506 22.8589 100.352 23.672 100.234 24.2272C99.7711 26.4019 99.2461 28.6031 98.7399 30.7315" fill="white"/>
<path d="M110.818 31.9647C110.665 31.892 110.468 31.9151 110.359 31.7829C110.256 31.6606 110.252 31.4557 110.252 31.2905C110.262 29.7338 110.271 28.1771 110.284 26.6172C110.287 26.019 110.29 25.4108 110.162 24.8324C110.034 24.2475 109.756 23.6823 109.299 23.3287C108.937 23.051 108.493 22.9254 108.049 22.8395C107.149 22.6677 106.202 22.6478 105.334 22.9552C104.684 23.1865 104.081 23.6228 103.687 24.221C103.424 24.6143 103.184 25.1762 103.234 25.6818C103.252 25.8702 103.315 26.0553 103.431 26.2173C103.702 26.6006 104.29 26.7163 104.624 26.3924C104.924 26.1016 104.924 25.6025 105.121 25.2224C105.396 24.6969 106.012 24.4821 106.581 24.4458C107.143 24.4127 107.737 24.535 108.156 24.9316C108.574 25.3282 108.737 26.052 108.409 26.5345C108.19 26.8584 107.812 27.0105 107.449 27.1063C106.709 27.3145 105.94 27.3806 105.199 27.5888C104.459 27.7971 103.724 28.1672 103.277 28.8282C102.852 29.4595 102.756 30.2857 102.827 31.0558C102.884 31.6408 103.037 32.2291 103.381 32.6885C103.812 33.2669 104.506 33.5842 105.199 33.68C106.474 33.8552 107.821 33.3231 108.668 32.2985C108.681 32.7116 108.868 33.1182 109.171 33.3859C109.471 33.6536 109.877 33.7725 110.268 33.7164C110.652 33.6602 111.062 33.4222 111.171 33.0256C111.277 32.6455 111.171 32.1266 110.815 31.9581L110.821 31.968L110.818 31.9647ZM108.562 29.9751C108.502 30.4642 108.268 30.9137 107.934 31.2508C107.774 31.4128 107.587 31.545 107.39 31.6474C106.806 31.9416 106.081 32.011 105.452 31.8391C104.852 31.6805 104.546 31.1682 104.568 30.5237C104.587 29.985 104.849 29.5355 105.274 29.2546C105.674 28.9902 106.134 28.8745 106.593 28.7886C107.19 28.6762 107.812 28.6002 108.381 28.3622C108.427 28.3424 108.493 28.3126 108.571 28.273V29.1521C108.571 29.4231 108.593 29.7008 108.562 29.9718V29.9751Z" fill="white"/>
<path d="M128.915 22.961V20.6541C128.915 20.5516 128.915 20.4558 128.949 20.3599C128.968 20.2938 128.996 20.2277 129.031 20.1682C129.124 19.9997 129.274 19.8774 129.446 19.8146C129.552 19.7782 129.662 19.7617 129.771 19.7617C129.977 19.7617 130.184 19.8278 130.331 19.9865C130.581 20.2509 130.593 20.6376 130.587 20.9879C130.581 21.2424 130.587 21.4902 130.587 21.7447V22.9676H131.468C131.581 22.9676 131.69 22.9577 131.796 23.004C132.112 23.1295 132.309 23.427 132.327 23.7773V23.8533C132.327 24.164 132.206 24.4482 131.959 24.6201C131.918 24.6499 131.874 24.6697 131.834 24.6895C131.74 24.7358 131.656 24.7424 131.556 24.7424H130.596V31.1244C130.596 31.1244 130.618 31.8813 131.399 31.8813C132.181 31.8813 132.59 31.8218 132.59 32.7273C132.59 32.9818 132.524 33.2099 132.337 33.3784C132.137 33.5569 131.865 33.623 131.612 33.6164C131.306 33.6098 131.012 33.6263 130.709 33.5734C130.434 33.5239 130.168 33.4148 129.924 33.2727C129.509 33.0281 129.174 32.6513 129.021 32.1688C128.952 31.9474 128.921 31.7127 128.921 31.4813V24.7788C128.768 24.7788 128.615 24.7821 128.465 24.7821C128.315 24.7821 128.165 24.7953 128.021 24.7589C127.79 24.6961 127.568 24.4879 127.468 24.2599C127.415 24.1409 127.393 24.0054 127.393 23.8732C127.393 23.5559 127.531 23.265 127.781 23.0932C127.906 23.0073 128.031 22.9775 128.181 22.9742C128.427 22.9643 128.677 22.9709 128.924 22.9709H128.921L128.915 22.961Z" fill="white"/>
<path d="M127.199 27.3771C126.959 25.0933 126.09 22.7236 122.993 22.7236C120.434 22.7236 118.549 26.0683 119.168 29.5485C119.468 31.2275 120.174 32.8502 121.987 33.5278C122.287 33.6401 122.665 33.6699 122.98 33.7029C123.934 33.8054 124.974 33.4749 125.721 32.8469C126.29 32.3677 127.121 31.2142 126.827 30.3582C126.709 30.0112 126.471 29.8361 126.109 29.7997C125.693 29.76 125.434 30.236 125.337 30.4475C125.096 30.9565 124.915 31.9314 123.187 31.9314C122.143 31.9314 121.552 31.2109 121.177 30.5665C120.927 30.1401 120.818 29.337 120.79 28.8379H125.79C125.93 28.8379 126.071 28.8379 126.212 28.8445C126.352 28.8512 126.493 28.8545 126.63 28.8115C126.799 28.7586 126.984 28.6099 127.074 28.4579C127.287 28.0943 127.24 27.7935 127.196 27.3837L127.199 27.3771ZM120.793 27.0896C120.793 27.0896 121.034 24.4984 123.19 24.4984C125.49 24.4984 125.452 27.0896 125.452 27.0896H120.793Z" fill="white"/>
<path d="M64.3337 0.0117188L60.7493 0.0249389L60.7555 3.14819L59.0618 3.16141L59.0555 6.56228H60.7649C60.7649 6.56228 60.7587 11.1728 60.7649 11.3909C60.7712 11.6091 60.8212 12.9707 62.1837 14.3159C63.7587 15.9585 65.6368 15.9287 65.6368 15.9287L68.3274 15.9221V12.6865H66.1024C64.5993 12.6865 64.3368 10.7663 64.3368 10.7663L64.343 6.58542C64.343 6.58542 65.468 6.57881 66.7743 6.5722C68.0774 6.56559 68.3274 5.05189 68.3274 5.05189V3.16141L64.3368 3.16802V0.0117188H64.3337Z" fill="white"/>
<path d="M73.8493 3.16834C73.2962 3.16834 72.3087 3.2047 70.9056 4.4507C69.5024 5.69669 69.2618 7.46158 69.2681 7.89453C69.2743 8.32749 69.2712 15.9324 69.2712 15.9324H72.7493C72.7493 15.9324 72.7524 9.49747 72.7524 8.42334C72.7524 7.34921 74.2837 6.57913 74.7024 6.57913C75.1212 6.57913 76.7462 6.58244 76.7462 6.58244L76.7306 3.16504H73.8493V3.16834Z" fill="white"/>
<path d="M88.5618 3.16789L84.918 3.17781C84.918 3.17781 84.9274 10.2737 84.9274 10.9017C84.9274 11.5296 84.3618 12.7888 82.993 12.7888C81.6243 12.7888 81.1743 11.2256 81.1743 10.8884C81.1743 10.5513 81.1837 6.07632 81.1837 4.79397C81.1837 3.51162 79.9805 3.15137 79.6962 3.15137C79.4118 3.15137 77.6118 3.1712 77.6118 3.1712C77.6118 3.1712 77.6024 10.4092 77.6024 11.0636C77.6024 11.718 77.6899 12.9739 78.8462 14.3554C80.0055 15.7402 81.4087 16.1104 83.0774 16.0872C84.7462 16.0674 85.7555 15.76 87.1087 14.6264C88.4587 13.4928 88.5868 11.252 88.5774 10.5877C88.568 9.92337 88.568 3.15467 88.568 3.15467V3.16128L88.5618 3.16789Z" fill="white"/>
<path d="M100.681 7.395C100.246 5.92095 99.7868 5.24673 99.0212 4.42708C97.7993 3.11168 95.9712 2.80762 95.1118 2.80762C94.2525 2.80762 92.7712 3.03236 91.2556 4.36098C89.7337 5.6896 89.2056 7.93372 89.1618 9.71182C89.1181 11.4899 90.0025 13.4796 91.1931 14.6495C92.3837 15.8195 93.8712 16.1236 95.2118 16.1104C96.5525 16.0971 97.3493 15.8096 98.4837 15.0891C99.6181 14.3686 100.418 12.8086 100.418 12.8086C100.418 12.8086 97.6775 12.0782 97.1025 11.9097C96.8368 12.3228 96.0931 13.0003 94.965 12.9673C93.84 12.9309 93.1775 12.0452 92.8931 11.5957C92.8056 11.4602 92.74 11.1693 92.6931 10.819C94.2775 10.819 100.39 10.8091 100.896 10.8091C100.912 9.20615 100.949 8.5154 100.684 7.40491V7.3983L100.681 7.395ZM92.64 8.21795C92.8306 7.45118 93.5118 5.92426 95.2275 6.04654C97.2681 6.19527 97.4806 8.22786 97.4806 8.22786L92.64 8.21795Z" fill="white"/>
<path d="M52.8902 3.34743H38.8871C37.9746 3.34743 37.159 3.95886 36.8558 4.87105C36.1871 6.89373 35.4371 9.18081 34.6621 11.534C34.6402 11.6067 34.6152 11.6827 34.5902 11.7521C34.5746 11.8017 34.5558 11.8546 34.5402 11.9041C32.1215 19.2512 29.4996 27.2097 28.5027 30.2206C28.3871 30.5974 28.2527 31.0237 28.0933 31.4633C28.0621 31.5393 27.9277 31.9128 27.6746 32.2796C27.6308 32.3424 27.5871 32.3986 27.5465 32.4515C27.4746 32.544 27.3808 32.6531 27.2433 32.7688C27.2371 32.7754 27.2277 32.7787 27.2215 32.7853C27.1746 32.825 27.1215 32.8613 27.0621 32.9043C26.9121 33.0001 26.7871 33.053 26.7371 33.0695C26.7308 33.0695 26.7246 33.0729 26.7183 33.0762H26.7152C26.7152 33.0762 26.7058 33.0762 26.7027 33.0795H26.6933C26.5152 33.1423 26.3465 33.1687 26.2152 33.1786H43.0465C43.1558 33.1786 43.2621 33.1654 43.3683 33.1356C43.7777 33.0233 44.6496 32.6234 45.0183 31.1923L53.759 4.62978C53.9652 4.00183 53.5246 3.34082 52.8902 3.34082V3.34743Z" fill="white"/>
<path d="M11.4527 28.1387C11.4527 28.1387 11.4589 28.1189 11.462 28.1057C11.4714 28.0726 11.4808 28.0429 11.4964 28.0098C11.512 27.9569 11.5308 27.9041 11.5495 27.8512C11.5714 27.7818 11.5964 27.7058 11.6183 27.6363C11.6495 27.5471 11.6777 27.4579 11.7089 27.3686C11.7464 27.2629 11.7777 27.1571 11.8152 27.0481C11.8558 26.9258 11.8964 26.8068 11.937 26.6812C11.9839 26.5457 12.0277 26.4069 12.0745 26.2714C12.1245 26.1193 12.1745 25.9706 12.2245 25.8219C12.2777 25.6599 12.3339 25.4947 12.387 25.3327C12.4433 25.1576 12.5027 24.9857 12.5589 24.8105C12.6183 24.6255 12.6808 24.4404 12.7402 24.2553C12.8027 24.0636 12.8683 23.8653 12.9339 23.6703C12.9995 23.4654 13.0714 23.2671 13.137 23.0622C13.2058 22.8507 13.2777 22.6391 13.3464 22.4342C13.4183 22.2161 13.4902 22.0013 13.562 21.7831C13.6339 21.5617 13.7089 21.3403 13.7808 21.1188C13.8558 20.8941 13.9308 20.6693 14.0058 20.4413C14.0808 20.2133 14.1589 19.9852 14.2308 19.7572C14.3058 19.5258 14.3839 19.2978 14.4589 19.0664L14.687 18.369C14.762 18.1377 14.8402 17.9063 14.9152 17.6783C14.9902 17.4502 15.0683 17.2189 15.1433 16.9909C15.2183 16.7628 15.2933 16.5348 15.3683 16.31C15.4402 16.0853 15.5183 15.8605 15.5902 15.6391C15.662 15.421 15.737 15.1995 15.8089 14.9781C15.8777 14.7633 15.9527 14.5484 16.0214 14.3336C16.0902 14.1254 16.1589 13.9205 16.2277 13.7123C16.2933 13.5107 16.362 13.3124 16.4277 13.1107C16.4902 12.9224 16.5527 12.7274 16.6183 12.539C16.6777 12.3572 16.737 12.1754 16.7964 11.9936C16.8527 11.8251 16.9089 11.6532 16.9652 11.4847C17.0183 11.326 17.0714 11.1674 17.1214 11.0087C17.1683 10.8633 17.2183 10.7179 17.2683 10.5725C17.312 10.4436 17.3558 10.3081 17.3964 10.1792C17.437 10.0635 17.4714 9.94783 17.512 9.83216C17.5464 9.73301 17.5777 9.63055 17.612 9.53471C17.6402 9.45539 17.6652 9.36946 17.6964 9.29013C17.7402 9.15793 17.7808 9.01912 17.8402 8.89023L17.8464 8.88362C17.8558 8.85057 17.862 8.83074 17.8777 8.81091C17.9933 8.53989 18.2995 8.24905 18.4214 8.20939L16.5277 1.47044C16.3027 0.611131 15.5245 0.0195312 14.712 0.0195312H1.34642C0.718298 0.0195312 0.265173 0.660707 0.446423 1.29858L7.97455 28.0594C8.28705 29.0079 8.96205 29.5037 9.64955 29.54C10.3683 29.5731 11.0995 29.1104 11.4527 28.1453V28.1387Z" fill="white"/>
<path d="M23.6651 29.4207C23.6339 29.3083 23.6026 29.1992 23.5714 29.0868C23.5557 29.0307 23.537 28.9712 23.5245 28.915L20.2995 17.4531L18.0432 9.43515C17.9589 9.1377 17.987 8.83694 18.1057 8.59237C18.137 8.53288 18.1682 8.47669 18.2089 8.42712C18.212 8.42051 18.2182 8.4139 18.2214 8.40729C18.2776 8.33788 18.3401 8.27839 18.4151 8.22551C18.4214 8.2189 18.4307 8.21559 18.4432 8.20898H18.4495C18.3276 8.24864 18.0214 8.53618 17.9057 8.80719C17.8932 8.83033 17.8776 8.85347 17.8682 8.8766C17.8682 8.87991 17.8651 8.88321 17.862 8.88652C17.8026 9.01211 17.762 9.15092 17.7182 9.28642C17.6901 9.36574 17.6651 9.45168 17.6339 9.531C17.5995 9.63015 17.5682 9.7326 17.5339 9.82845C17.4932 9.94412 17.4589 10.0598 17.4182 10.1755C17.3745 10.3044 17.3307 10.4399 17.2901 10.5688C17.2401 10.7142 17.1932 10.8596 17.1432 11.005C17.0901 11.1637 17.037 11.3223 16.987 11.481C16.9307 11.6495 16.8745 11.8214 16.8182 11.9899C16.7589 12.1717 16.6995 12.3535 16.6401 12.5353C16.5776 12.7237 16.5151 12.9186 16.4495 13.107C16.3839 13.3086 16.3151 13.5069 16.2495 13.7086C16.1807 13.9168 16.112 14.1217 16.0432 14.3299C15.9745 14.5447 15.8995 14.7596 15.8307 14.9744C15.7589 15.1958 15.6839 15.4139 15.612 15.6354C15.5401 15.8601 15.462 16.0849 15.3901 16.3063C15.3151 16.5344 15.2401 16.7624 15.1651 16.9871C15.0901 17.2152 15.012 17.4465 14.937 17.6746C14.862 17.9059 14.7839 18.1373 14.7089 18.3653L14.4807 19.0627C14.4057 19.294 14.3276 19.5221 14.2526 19.7534C14.1776 19.9815 14.0995 20.2095 14.0276 20.4376C13.9526 20.6623 13.8776 20.8871 13.8026 21.1151C13.7307 21.3366 13.6557 21.558 13.5839 21.7794C13.512 21.9976 13.4401 22.2124 13.3682 22.4305C13.2995 22.642 13.2276 22.8536 13.1589 23.0585C13.0932 23.2634 13.0214 23.4617 12.9557 23.6666C12.8932 23.8583 12.8276 24.0566 12.762 24.2516C12.7026 24.4367 12.6401 24.6218 12.5807 24.8068C12.5245 24.982 12.4651 25.1539 12.4089 25.329C12.3557 25.491 12.2995 25.6562 12.2464 25.8182C12.1964 25.9702 12.1464 26.1189 12.0964 26.2677C12.0495 26.4032 12.0057 26.542 11.9589 26.6775C11.9182 26.7998 11.8776 26.9188 11.837 27.0443C11.7995 27.1501 11.7682 27.2559 11.7307 27.3649C11.6995 27.4542 11.6714 27.5434 11.6401 27.6326C11.6182 27.702 11.5932 27.7781 11.5714 27.8475C11.5557 27.9003 11.537 27.9532 11.5182 28.0061C11.5089 28.0392 11.4995 28.0689 11.4839 28.1019C11.4807 28.1119 11.4776 28.1218 11.4745 28.135C11.1214 29.0968 10.387 29.5628 9.67136 29.5297H9.63074H23.7151C23.7057 29.4901 23.6932 29.4537 23.6807 29.414L23.6745 29.424L23.6651 29.4207Z" fill="#1E1E1E" fill-opacity="0.4"/>
<path d="M34.6652 11.5346C34.5464 11.0752 34.4245 10.6125 34.3089 10.1531C34.212 9.773 34.1027 9.40945 33.9089 9.06572C33.7183 8.73522 33.4589 8.44768 33.1402 8.2626C33.0495 8.20972 32.9589 8.16345 32.862 8.1304C32.7089 8.07422 32.4527 8.03125 32.2902 8.03125H19.0277C18.7964 8.03125 18.5995 8.09405 18.437 8.20311H18.4339C18.4339 8.20311 18.4183 8.21303 18.4058 8.21964C18.3339 8.27252 18.2683 8.33531 18.212 8.40141C18.2089 8.40802 18.2027 8.41463 18.1995 8.42124C18.1589 8.47412 18.1277 8.53031 18.0964 8.58649C17.9777 8.83107 17.9495 9.13182 18.0339 9.42928L20.2902 17.4473L23.5152 28.9091L23.6777 29.4809L24.2902 31.7415C24.3308 31.8605 24.6558 32.7925 25.5495 33.0867C25.987 33.2321 26.3745 33.1594 26.5714 33.1065C26.6027 33.0999 26.637 33.09 26.6808 33.0734H26.6902C26.6902 33.0734 26.6995 33.0701 26.7058 33.0668C26.712 33.0668 26.7183 33.0635 26.7245 33.0602C26.7745 33.0437 26.8995 32.9941 27.0495 32.895C27.1089 32.8553 27.162 32.819 27.2089 32.776C27.3058 32.6967 27.3777 32.6207 27.4308 32.5645C27.4683 32.5248 27.4995 32.4885 27.537 32.4455C27.5808 32.3926 27.6245 32.3364 27.6652 32.2736C27.9183 31.9068 28.0558 31.5366 28.0839 31.4573C28.2433 31.0177 28.3777 30.5881 28.4933 30.2146C28.5558 30.0064 28.6152 29.818 28.6683 29.6527C28.8089 29.2297 28.9464 28.81 29.087 28.3902C29.262 27.8581 29.437 27.3326 29.612 26.8005L30.2183 24.9695C30.437 24.3085 30.6558 23.6442 30.8714 22.9832C31.0964 22.2991 31.3245 21.6083 31.5527 20.9242L32.2308 18.875C32.4464 18.224 32.6589 17.5762 32.8745 16.9218C33.0714 16.3302 33.262 15.7419 33.4589 15.147L33.9558 13.6366C34.0808 13.2499 34.212 12.8632 34.337 12.4732C34.3995 12.2815 34.462 12.0865 34.5308 11.8948C34.5464 11.8453 34.5652 11.7924 34.5808 11.7428C34.6027 11.6701 34.6277 11.5941 34.6527 11.5247H34.6495L34.6652 11.5346Z" fill="#C3C3C3"/>
</svg>
