<svg width="77" height="50" viewBox="0 0 77 50" fill="none" xmlns="http://www.w3.org/2000/svg">
<path d="M36.142 16.9882C36.437 15.5102 36.1342 14.7713 35.2181 14.7713C34.3098 14.7713 33.7275 15.502 33.4635 16.9882C33.1375 18.4579 33.4325 19.1805 34.3408 19.1476C35.2492 19.1805 35.8392 18.4661 36.142 16.9882ZM55.776 18.2198C55.6596 18.8028 55.9003 19.1066 56.5213 19.1476C57.2201 19.1805 57.7169 18.5318 57.9887 17.1853C56.6611 17.1278 55.9313 17.4726 55.776 18.2198ZM52.0262 13.6957C52.2048 12.7678 51.6691 12.3244 50.3959 12.3573C50.0854 12.3901 49.899 12.3901 49.8136 12.3573L49.2779 15.034C49.3789 15.034 49.573 15.0504 49.8524 15.0915C51.1179 15.2229 51.8399 14.7549 52.0262 13.6957ZM37.9586 31.7102H40.9321C41.1417 31.7102 41.2737 31.587 41.328 31.3079L41.5299 30.3062H38.2381L37.9586 31.7102ZM48.9519 29.7068H50.6676L51.0791 27.6294H49.3789L48.9519 29.7068ZM69.5719 0H14.2332C10.4135 0 7.31583 3.27612 7.31583 7.31585L0.40625 42.4335C0.40625 46.4733 3.50392 49.7412 7.32359 49.7412H62.6546C66.482 49.7412 69.5719 46.4733 69.5719 42.4335L76.4893 7.31585C76.4815 3.26791 73.3916 0 69.5719 0ZM57.6315 14.5742C57.1347 14.6071 56.7931 14.9355 56.6145 15.5513H54.8134C54.9842 14.7959 55.3879 14.2458 56.0167 13.9009C56.4903 13.6628 57.1347 13.5232 57.9498 13.4904C59.6501 13.5232 60.3721 14.3443 60.0771 15.9618L59.3551 19.5664C59.3395 19.6403 59.324 19.7142 59.3007 19.8209C59.3162 20.059 59.3162 20.215 59.3085 20.2889H57.6471C57.6471 19.9769 57.6626 19.6813 57.7247 19.4186C57.2045 20.0673 56.4903 20.3957 55.5897 20.3957C54.2699 20.3218 53.7109 19.6896 53.9283 18.4908C54.1845 17.4973 54.7823 16.7911 55.7217 16.3806C56.3195 16.1425 57.1502 16.0193 58.2138 16.0193L58.338 15.4035C58.3458 14.878 58.1129 14.6071 57.6315 14.5742ZM57.2822 26.8166L56.9018 28.6311H55.318C54.6814 28.6804 54.3708 28.3356 54.3864 27.6294L54.2854 25.3468H56.436L56.5369 26.4142C56.4825 26.7344 56.599 26.8658 56.9018 26.8166H57.2822ZM48.2299 10.7644H51.0014C53.4314 10.7315 54.464 11.7004 54.0603 13.6957C53.6255 15.5513 52.3911 16.5202 50.3648 16.6269H48.9441L48.2143 20.2807H46.3123L48.2299 10.7644ZM40.0703 13.6464H41.9103L41.7628 14.4182L41.8016 14.4675C42.2519 13.8517 42.9506 13.5314 43.89 13.4904C44.9614 13.6628 45.5514 14.139 45.6446 14.9355C45.6213 15.3378 45.6058 15.6827 45.5825 15.9618L44.7207 20.2807H42.8186L43.6183 16.3231C43.7813 15.3296 43.5174 14.8123 42.8109 14.7795C42.1199 14.8534 41.6308 15.3625 41.3824 16.3231L40.5827 20.2807H38.7428L40.0703 13.6464ZM35.4821 13.4904C37.5394 13.5971 38.3856 14.7631 38.0363 16.9964C37.5006 19.1805 36.1808 20.3136 34.0924 20.3875C31.9962 20.3136 31.1422 19.1887 31.5226 16.9964C32.0273 14.7549 33.3548 13.5889 35.4821 13.4904ZM36.2972 26.1433L35.8858 28.1549H32.7182C32.3068 28.9103 31.8565 29.2716 31.3596 29.2305H29.7137L30.0786 27.4159H30.3969C30.6842 27.4652 30.886 27.3092 31.0025 26.9479L31.8487 25.2729H34.0691L33.6343 26.1433H36.2972ZM29.5119 10.7644H31.5071L31.1655 12.4558H29.1703L29.5119 10.7644ZM14.4506 20.3793C11.8963 20.3054 10.8405 19.0984 11.2442 16.7254L12.4398 10.7562H14.3807L13.3404 15.9536C12.7891 18.0802 13.2472 19.0902 14.7223 18.9834C16.0964 19.0902 16.9504 18.072 17.2765 15.9536L18.3168 10.7562H20.2655L19.0699 16.7254C18.4954 19.0984 16.9582 20.3136 14.4506 20.3793ZM26.9577 15.9618L26.0881 20.2807H24.2016L24.9935 16.3231C25.1565 15.3296 24.8926 14.8123 24.1861 14.7795C23.4873 14.8534 23.0138 15.3625 22.7576 16.3231L21.9657 20.2807H20.1102L21.4455 13.6382H23.2933L23.1458 14.41L23.1846 14.4593C23.6349 13.8435 24.3336 13.5232 25.2807 13.4822C26.3521 13.6546 26.9344 14.1308 27.0353 14.9273C26.9965 15.3378 26.981 15.6827 26.9577 15.9618ZM28.9762 13.6464H30.8783L29.5429 20.2889H27.6409L28.9762 13.6464ZM32.889 40.4383H29.9777C29.2634 40.4383 29.0305 39.9128 29.2867 38.8947L29.9777 35.4708H28.5104L28.8986 33.5905H30.3581L30.723 31.7841H29.3256L29.706 29.9038H35.5364L35.1482 31.7841H32.8036L32.431 33.5905H34.7212L34.3408 35.4708H32.0583L31.5149 38.1475C31.3829 38.5991 31.5537 38.8126 32.0273 38.7551H33.2306L32.889 40.4383ZM42.9739 35.1259C42.741 36.0702 42.2597 36.5382 41.5454 36.5382H40.5284L40.5206 38.4841C40.4585 38.8044 40.6604 38.9522 41.1262 38.9522H42.0733L41.7706 40.4383H39.4881C38.7971 40.4794 38.4788 40.077 38.5254 39.2231L38.7039 33.9928H40.606L40.5672 35.1341H41.0718C41.2815 35.1341 41.4134 35.011 41.4678 34.7318L41.6075 34.0667H43.1913L42.9739 35.1259ZM41.7706 33.5248H37.5938L36.5845 38.4841C36.4836 38.8044 36.5534 38.9357 36.8174 38.8947H37.6403L37.3376 40.3562H35.2414C34.4495 40.3151 34.1234 39.9867 34.2477 39.3545L37.0658 25.4782H44.6664L43.2845 32.326C43.1214 33.1225 42.6246 33.5248 41.7706 33.5248ZM50.8462 39.6829L50.6754 40.5615H48.4472L48.6258 39.6829H44.2549L44.6508 37.7369H45.0934L47.1507 27.6212H46.7082L47.143 25.47H54.1767L53.742 27.6212H53.2995L51.2421 37.7369H51.6924L51.2887 39.6829H50.8462ZM60.2479 31.1765H58.0352L57.6548 32.9911H59.883L59.4948 34.9371H57.0182L56.4748 36.0784H57.6781L57.9731 38.3528C57.9654 38.5909 58.1129 38.6894 58.4157 38.6894H58.7883L58.4234 40.4958H57.0881C56.3738 40.4958 56.0012 40.2084 55.9934 39.6254L55.6596 37.5481L54.5805 39.765C54.3243 40.3398 53.9361 40.6107 53.3926 40.5615H51.3741L51.739 38.7469H52.3756C52.6163 38.8044 52.8414 38.6401 53.0433 38.2789L54.7357 34.9288H52.5076L52.9035 32.9829H55.318L55.6829 31.1683H53.2762L53.6721 29.2223H60.636L60.2479 31.1765ZM60.737 27.5555C60.4109 28.352 59.8442 28.7133 59.0678 28.6311H57.7402L58.1051 26.8166H58.6175C58.8271 26.8166 58.9979 26.6852 59.1299 26.4142L59.6656 25.3468H61.6996L60.737 27.5555ZM63.1437 22.6947H61.2959L62.5536 20.2807L61.5056 13.6382H63.5086L63.9433 18.2198L66.2802 13.6382H68.1201L63.1437 22.6947ZM47.3215 37.7452H49.0295L49.4565 35.6678H47.7407L47.3215 37.7452ZM38.5797 28.6311H41.8793L42.1587 27.2846H38.8515L38.5797 28.6311ZM48.1367 33.7219H49.8447L50.2717 31.6445H48.5637L48.1367 33.7219Z" fill="white"/>
</svg>
