<svg width="112" height="44" viewBox="0 0 112 44" fill="none" xmlns="http://www.w3.org/2000/svg">
<path d="M30.124 14.4996C30.0749 13.6151 30.046 13.1094 30.046 13.1094C30.046 13.1094 29.9738 13.6105 29.838 14.4874C29.7802 14.9197 29.695 15.4453 29.6026 16.0487C29.5361 16.6506 29.2602 17.2923 29.0739 18.0012C28.8803 18.71 28.6434 19.4632 28.2563 20.1965C27.8981 20.939 27.5788 21.7364 27.0357 22.4377C26.7959 22.7967 26.5474 23.1633 26.3033 23.5346C26.0419 23.8921 25.7053 24.2022 25.4092 24.5398C24.8386 25.2395 24.138 25.8109 23.4417 26.3731C22.7859 26.9643 21.9582 27.3722 21.2649 27.8611C20.4632 28.2308 19.7597 28.6845 18.9695 28.958C18.2155 29.2758 17.4716 29.5477 16.7392 29.7448C16.0314 29.9892 15.3222 30.1068 14.6967 30.2673C14.2966 30.3436 13.9268 30.4063 13.5729 30.4628C13.6075 30.3482 13.6509 30.2398 13.6884 30.1252C14.0235 29.0542 14.2749 27.9344 14.4425 26.7596C14.5118 26.1638 14.5696 25.5588 14.6086 24.9431C14.6404 24.3198 14.6288 23.6721 14.5696 22.9968C13.9759 23.2581 13.4327 23.5544 12.9214 23.8691C12.4274 24.1945 11.9507 24.5322 11.4855 24.8805C10.5798 25.5863 9.76369 26.3471 9.02699 27.1583C7.53626 28.7747 6.31999 30.5652 5.30883 32.484L5.17882 32.7208C4.55479 33.9139 4.67758 35.4417 5.58762 36.5126C6.78945 37.9227 8.10684 39.235 9.63658 40.3579C10.3964 40.9231 11.2111 41.4426 12.0951 41.9055C12.9806 42.3623 13.8935 42.7977 14.9798 43.0757C14.9249 41.8978 14.6981 40.8636 14.4482 39.8568C14.2027 38.876 13.8849 37.9594 13.5165 37.0794C14.3283 36.8013 15.3077 36.4148 16.4142 35.9183C17.1278 35.5562 17.9122 35.2186 18.698 34.7374C19.4982 34.302 20.3072 33.7764 21.1219 33.1944C21.9568 32.6643 22.7253 31.9187 23.5414 31.271C24.2767 30.4918 25.0856 29.8013 25.7342 28.9213C26.4073 28.0734 27.0588 27.2271 27.5571 26.2738C27.8114 25.8094 28.1032 25.377 28.3155 24.9004C28.5076 24.4191 28.7012 23.944 28.8861 23.475C29.3108 22.5706 29.4913 21.6051 29.7037 20.7251C29.955 19.8543 30.0388 19.0018 30.0879 18.2196C30.137 17.4374 30.2642 16.7408 30.215 16.1098C30.1732 15.4865 30.1529 14.9396 30.1226 14.492L30.124 14.4996Z" fill="white"/>
<path d="M25.1995 7.5255C24.0367 6.07875 22.7568 4.72365 21.2589 3.55342C20.5149 2.96219 19.7176 2.41679 18.8465 1.92792C17.9712 1.44668 17.0669 0.983782 15.9922 0.666016C16.0124 1.84695 16.2089 2.8858 16.4342 3.90174C16.6538 4.88865 16.947 5.81598 17.2893 6.70511C16.4689 6.95872 15.475 7.3162 14.3584 7.77605C13.6333 8.1152 12.8403 8.42686 12.0429 8.88365C11.2311 9.29461 10.4063 9.79265 9.57423 10.3503C8.7263 10.8559 7.93616 11.5755 7.10556 12.1958C6.3472 12.9535 5.51805 13.6135 4.84491 14.4767C4.15154 15.3032 3.47262 16.1266 2.94682 17.0646C2.67814 17.5214 2.37335 17.9446 2.14946 18.4121C1.93856 18.8857 1.73632 19.3577 1.53409 19.8176C1.08341 20.7067 0.879732 21.6661 0.641388 22.5385C0.364042 23.4016 0.262927 24.2495 0.187812 25.0317C0.122809 25.8108 -0.0317546 26.5029 0.00580267 27.1369C0.0245813 27.7633 0.0404719 28.3071 0.052028 28.7578C0.0794737 29.6424 0.0895844 30.1511 0.0895844 30.1511C0.0895844 30.1511 0.177701 29.65 0.332263 28.7777C0.408822 28.3469 0.502715 27.8274 0.609608 27.2255C0.697723 26.6267 0.98807 25.9911 1.19463 25.2899C1.41131 24.5856 1.66121 23.8401 2.08012 23.1221C2.45858 22.3887 2.80093 21.602 3.36284 20.9175C3.61419 20.5677 3.87131 20.2087 4.12988 19.8466C4.4 19.4952 4.74523 19.1958 5.04569 18.8689C5.63072 18.1921 6.34719 17.6421 7.05645 17.1013C7.73392 16.5314 8.56163 16.148 9.27521 15.6805C10.087 15.3352 10.8035 14.9029 11.6023 14.6569C12.3679 14.3636 13.1191 14.1161 13.8529 13.9404C14.5664 13.7174 15.2829 13.6227 15.9127 13.4806C16.3143 13.4195 16.6899 13.3675 17.0409 13.3217C16.999 13.4347 16.96 13.5417 16.9167 13.6547C16.5512 14.7134 16.2695 15.8256 16.0687 16.9959C15.9806 17.5902 15.9041 18.1936 15.8463 18.8078C15.8001 19.4311 15.7914 20.0758 15.8318 20.7556C16.4328 20.5142 16.9802 20.2346 17.5031 19.9337C18.0073 19.6236 18.4998 19.3012 18.9679 18.9712C19.8967 18.2944 20.7331 17.5581 21.4958 16.7682C23.0255 15.1993 24.2952 13.4485 25.3642 11.5618L25.4985 11.3265C26.1543 10.1562 26.0792 8.62241 25.198 7.5255H25.1995Z" fill="white"/>
<path d="M60.7379 5.55078C58.1337 17.2475 57.8005 19.0882 57.4645 21.1063H57.4092C56.964 18.3528 56.7647 17.2259 54.418 5.55078H49.9719C47.8449 16.7171 47.5394 18.8801 47.1757 21.1063H47.1219C46.7582 18.6766 46.5021 17.1935 43.9299 5.55078H39.462L45.1374 26.8228H49.051C51.2071 15.8615 51.5374 14.3198 52.1557 10.2298H52.2095C52.8773 14.3152 53.2454 16.3918 55.3142 26.8228H59.3383L64.9905 5.55078H60.7379Z" fill="white"/>
<path d="M56.8306 37.1528C56.8306 35.3179 56.4046 35.0188 55.6178 34.6673C56.5631 34.3354 57.0953 33.4082 57.0953 32.3254C57.0953 31.4835 56.6329 29.5498 54.0909 29.5498H49.2601V39.3677H51.2189V35.5273H53.278C54.7555 35.5273 54.8369 36.0447 54.8369 37.3861C54.8369 38.4001 54.914 38.9056 55.0463 39.3677H57.2538V39.1119C56.8306 38.9519 56.8306 38.5975 56.8277 37.1543L56.8306 37.1528ZM53.5572 33.8792H51.2218V31.2472H53.707C54.8747 31.2472 55.1031 32.0129 55.1031 32.5318C55.1031 33.5054 54.5984 33.8792 53.5587 33.8792H53.5572Z" fill="white"/>
<path d="M40.4935 29.5498L40.4949 31.2863H43.3696V39.3677H45.3518V31.2863H48.2294V29.5498H40.4935Z" fill="white"/>
<path d="M99.27 23.0491V17.538H109.035V13.7796H99.27V9.31219H109.903V5.55078H95.1608V26.8228H110.375V23.0491H99.27Z" fill="white"/>
<path d="M93.3554 31.337V29.5498H86.651L86.6539 39.6404H88.6213V35.3966H92.7656V33.6109H88.6213V31.337H93.3554Z" fill="white"/>
<path d="M90.9274 22.0231C90.9274 18.0526 90.0515 17.396 88.431 16.6268C90.383 15.9194 91.4804 13.8987 91.4804 11.5635C91.4804 9.72319 90.5159 5.55078 85.2687 5.55078H75.3044V26.8182H79.347V18.4872H83.6025C86.6476 18.4872 86.812 19.614 86.812 22.5225C86.8091 24.7096 86.9763 25.8101 87.2535 26.8228H91.8077V26.2587C90.9274 25.9042 90.9274 25.1319 90.9274 22.0215V22.0231ZM84.1741 14.9129H79.347V9.22379H84.477C86.8977 9.22379 87.3621 10.8807 87.3621 12.0075C87.3593 14.1083 86.3147 14.9098 84.1727 14.9129H84.1741Z" fill="white"/>
<path d="M96.5918 37.6284V35.0921H101.228V33.3513H96.5918V31.2876H101.64V29.5498H94.6448V39.3677H101.865V37.6284H96.5918Z" fill="white"/>
<path d="M110.981 37.1528C110.981 35.3179 110.551 35.0188 109.768 34.6673C110.715 34.3354 111.25 33.4082 111.25 32.3254C111.25 31.4835 110.782 29.5498 108.24 29.5498H103.412V39.3677H105.372V35.5273H107.433C108.906 35.5273 108.992 36.0447 108.992 37.3861C108.992 38.4001 109.069 38.9056 109.202 39.3677H111.406V39.1119C110.983 38.9519 110.983 38.5975 110.98 37.1543L110.981 37.1528ZM107.71 33.8792H105.374V31.2472H107.856C109.029 31.2472 109.257 32.0129 109.257 32.5318C109.257 33.5054 108.752 33.8792 107.712 33.8792H107.71Z" fill="white"/>
<path d="M82.6353 33.7742L80.3445 33.1838C79.9501 33.0909 79.3419 32.9246 79.3419 32.1574C79.3419 31.2628 80.2413 30.9781 80.9829 30.9781C82.7042 30.9781 82.8562 32.0255 82.9179 32.4571H84.797C84.7827 31.2538 84.0124 29.2773 81.122 29.2773C78.0667 29.2773 77.5072 31.2148 77.5072 32.3102C77.5072 34.4755 78.9732 34.8306 80.498 35.1992L81.5036 35.448C82.5062 35.6967 83.2105 35.899 83.2105 36.6662C83.2105 37.7121 82.1706 37.9399 81.2454 37.9399C79.5241 37.9399 79.2601 36.897 79.2458 36.353H77.3681C77.3681 37.5713 77.9562 39.6406 81.3931 39.6406C82.215 39.6406 85.104 39.3799 85.104 36.4205C85.1011 34.6538 83.9249 34.1024 82.6325 33.7742H82.6353Z" fill="white"/>
<path d="M71.1787 5.55078H67.0529V26.5501H71.1787V5.55078Z" fill="white"/>
<path d="M63.7101 29.5498H61.4151L58.0276 39.6404H60.12L60.7799 37.5596H64.2846L64.8952 39.6404H67.0528L63.7072 29.5498H63.7101ZM61.3138 35.8199L62.5337 31.8289H62.5496L63.7347 35.8199H61.3124H61.3138Z" fill="white"/>
<path d="M73.9666 29.5498V36.5791H73.9435L70.171 29.5498H68.0845V39.6404H69.9324V32.4451H69.9599L73.8336 39.6404H75.8204V29.5498H73.9666Z" fill="white"/>
</svg>
